<svg version="1.1" xmlns="http://www.w3.org/2000/svg" viewBox="0 0 843.3225413487728 3908" width="843.3225413487728" height="3908">
  <!-- svg-source:excalidraw -->
  
  <defs>
    <style class="style-fonts">
      @font-face {
        font-family: "Virgil";
        src: url("https://excalidraw.com/Virgil.woff2");
      }
      @font-face {
        font-family: "Cascadia";
        src: url("https://excalidraw.com/Cascadia.woff2");
      }
      @font-face {
        font-family: "Assistant";
        src: url("https://excalidraw.com/Assistant-Regular.woff2");
      }
    </style>
    
  </defs>
  <g stroke-linecap="round" transform="translate(12 10) rotate(0 308.5 1944)"><path d="M0 0 C0 0, 0 0, 0 0 M0 0 C0 0, 0 0, 0 0 M0.27 24.08 C7.23 16.07, 14.2 8.06, 21.26 -0.07 M0.27 24.08 C6.37 17.06, 12.48 10.03, 21.26 -0.07 M-0.12 48.92 C10.47 36.73, 21.06 24.55, 42.52 -0.14 M-0.12 48.92 C16.66 29.61, 33.45 10.3, 42.52 -0.14 M0.14 73 C14.85 56.08, 29.57 39.15, 63.78 -0.21 M0.14 73 C19.62 50.59, 39.11 28.18, 63.78 -0.21 M-0.25 97.84 C23.62 70.38, 47.5 42.92, 85.04 -0.28 M-0.25 97.84 C17.7 77.19, 35.66 56.53, 85.04 -0.28 M0.02 121.92 C31.68 85.5, 63.34 49.08, 106.3 -0.34 M0.02 121.92 C39.95 75.99, 79.87 30.06, 106.3 -0.34 M0.29 146 C33.34 107.98, 66.39 69.96, 126.91 0.34 M0.29 146 C36.86 103.93, 73.43 61.86, 126.91 0.34 M-0.1 170.84 C57.18 104.94, 114.47 39.04, 148.17 0.27 M-0.1 170.84 C57.2 104.91, 114.51 38.99, 148.17 0.27 M0.16 194.92 C51.1 136.32, 102.03 77.73, 169.43 0.2 M0.16 194.92 C65.49 119.77, 130.81 44.63, 169.43 0.2 M-0.23 219.75 C39.94 173.54, 80.11 127.33, 190.69 0.13 M-0.23 219.75 C41.05 172.27, 82.33 124.78, 190.69 0.13 M0.04 243.84 C56.84 178.49, 113.64 113.15, 211.95 0.06 M0.04 243.84 C74.14 158.59, 148.24 73.35, 211.95 0.06 M0.3 267.92 C80.24 175.96, 160.18 84, 233.21 0 M0.3 267.92 C77.87 178.69, 155.44 89.46, 233.21 0 M-0.08 292.75 C99.27 178.46, 198.62 64.17, 254.47 -0.07 M-0.08 292.75 C81.03 199.45, 162.14 106.14, 254.47 -0.07 M0.18 316.84 C60.08 247.93, 119.98 179.03, 275.73 -0.14 M0.18 316.84 C109.24 191.38, 218.3 65.92, 275.73 -0.14 M-0.21 341.67 C75.56 254.51, 151.34 167.34, 296.99 -0.21 M-0.21 341.67 C95.47 231.61, 191.14 121.55, 296.99 -0.21 M0.06 365.75 C103.41 246.86, 206.76 127.97, 318.25 -0.28 M0.06 365.75 C80.86 272.81, 161.65 179.86, 318.25 -0.28 M0.32 389.84 C71.09 308.43, 141.85 227.03, 339.51 -0.35 M0.32 389.84 C95.07 280.85, 189.81 171.86, 339.51 -0.35 M-0.07 414.67 C78.03 324.83, 156.13 234.99, 360.11 0.34 M-0.07 414.67 C125.12 270.67, 250.3 126.66, 360.11 0.34 M0.2 438.75 C136.4 282.08, 272.59 125.4, 381.37 0.27 M0.2 438.75 C76.9 350.52, 153.61 262.28, 381.37 0.27 M-0.19 463.59 C122.33 322.65, 244.85 181.71, 402.63 0.2 M-0.19 463.59 C123.63 321.15, 247.45 178.72, 402.63 0.2 M0.08 487.67 C155.36 309.04, 310.65 130.4, 423.89 0.13 M0.08 487.67 C164.8 298.17, 329.53 108.68, 423.89 0.13 M-0.31 512.51 C114.09 380.9, 228.5 249.29, 445.15 0.06 M-0.31 512.51 C157.71 330.73, 315.73 148.94, 445.15 0.06 M-0.05 536.59 C121.53 396.73, 243.11 256.87, 466.41 -0.01 M-0.05 536.59 C108.78 411.4, 217.61 286.2, 466.41 -0.01 M0.22 560.67 C99.81 446.11, 199.39 331.55, 487.67 -0.08 M0.22 560.67 C147.23 391.56, 294.24 222.44, 487.67 -0.08 M-0.17 585.51 C113.96 454.22, 228.09 322.92, 508.93 -0.15 M-0.17 585.51 C110.51 458.18, 221.2 330.86, 508.93 -0.15 M0.1 609.59 C177.89 405.06, 355.68 200.54, 530.19 -0.22 M0.1 609.59 C185.91 395.84, 371.72 182.08, 530.19 -0.22 M-0.29 634.43 C110.34 507.16, 220.97 379.89, 551.45 -0.28 M-0.29 634.43 C172.88 435.21, 346.06 235.99, 551.45 -0.28 M-0.03 658.51 C170.83 461.96, 341.68 265.42, 572.71 -0.35 M-0.03 658.51 C168.8 464.3, 337.62 270.09, 572.71 -0.35 M0.24 682.59 C173.73 483.02, 347.21 283.44, 593.32 0.33 M0.24 682.59 C229.3 419.09, 458.35 155.59, 593.32 0.33 M-0.15 707.43 C123.16 565.57, 246.48 423.71, 614.58 0.26 M-0.15 707.43 C195.42 482.45, 390.99 257.47, 614.58 0.26 M0.12 731.51 C223.88 474.1, 447.65 216.68, 617.47 21.33 M0.12 731.51 C240.02 455.53, 479.93 179.55, 617.47 21.33 M-0.27 756.34 C128.89 607.76, 258.05 459.18, 617.08 46.16 M-0.27 756.34 C243.65 475.74, 487.57 195.14, 617.08 46.16 M-0.01 780.43 C143.19 615.69, 286.4 450.96, 617.34 70.24 M-0.01 780.43 C225.83 520.64, 451.66 260.85, 617.34 70.24 M0.26 804.51 C216.4 555.87, 432.54 307.22, 616.95 95.08 M0.26 804.51 C179.57 598.23, 358.89 391.95, 616.95 95.08 M-0.13 829.34 C173.98 629.05, 348.1 428.75, 617.22 119.16 M-0.13 829.34 C156.2 649.51, 312.53 469.67, 617.22 119.16 M0.14 853.43 C191.56 633.21, 382.99 413, 617.49 143.24 M0.14 853.43 C222.89 597.17, 445.65 340.92, 617.49 143.24 M-0.25 878.26 C155.97 698.55, 312.19 518.83, 617.1 168.08 M-0.25 878.26 C170.68 681.62, 341.62 484.99, 617.1 168.08 M0.01 902.34 C143.91 736.81, 287.81 571.28, 617.36 192.16 M0.01 902.34 C217.09 652.63, 434.16 402.91, 617.36 192.16 M0.28 926.43 C151.23 752.77, 302.19 579.12, 616.97 217 M0.28 926.43 C218.24 675.69, 436.2 424.96, 616.97 217 M-0.11 951.26 C199.87 721.2, 399.86 491.15, 617.24 241.08 M-0.11 951.26 C123.43 809.14, 246.98 667.02, 617.24 241.08 M0.15 975.34 C195.45 750.68, 390.74 526.02, 617.51 265.16 M0.15 975.34 C179.28 769.29, 358.4 563.23, 617.51 265.16 M-0.24 1000.18 C151.92 825.15, 304.07 650.11, 617.12 290 M-0.24 1000.18 C144.17 834.07, 288.57 667.95, 617.12 290 M0.03 1024.26 C176.75 820.97, 353.46 617.69, 617.38 314.08 M0.03 1024.26 C237.67 750.89, 475.31 477.52, 617.38 314.08 M0.3 1048.34 C200.01 818.6, 399.73 588.85, 616.99 338.92 M0.3 1048.34 C229.21 785.01, 458.12 521.68, 616.99 338.92 M-0.09 1073.18 C205.1 837.13, 410.29 601.09, 617.26 363 M-0.09 1073.18 C139.62 912.46, 279.32 751.75, 617.26 363 M0.17 1097.26 C209.24 856.75, 418.32 616.25, 617.53 387.08 M0.17 1097.26 C198.23 869.43, 396.28 641.59, 617.53 387.08 M-0.22 1122.1 C241.77 843.72, 483.76 565.34, 617.14 411.92 M-0.22 1122.1 C180.93 913.72, 362.07 705.34, 617.14 411.92 M0.05 1146.18 C205.53 909.8, 411.01 673.42, 617.4 436 M0.05 1146.18 C236.03 874.72, 472 603.26, 617.4 436 M0.32 1170.26 C223.37 913.66, 446.43 657.07, 617.01 460.83 M0.32 1170.26 C219.89 917.67, 439.47 665.08, 617.01 460.83 M-0.07 1195.1 C128.16 1047.58, 256.39 900.07, 617.28 484.92 M-0.07 1195.1 C151.52 1020.71, 303.11 846.32, 617.28 484.92 M0.19 1219.18 C183.87 1007.88, 367.55 796.58, 617.54 509 M0.19 1219.18 C169.72 1024.16, 339.25 829.14, 617.54 509 M-0.2 1244.02 C199.81 1013.94, 399.82 783.85, 617.16 533.83 M-0.2 1244.02 C241.48 966, 483.16 687.98, 617.16 533.83 M0.07 1268.1 C132.71 1115.51, 265.35 962.92, 617.42 557.92 M0.07 1268.1 C123.6 1125.99, 247.13 983.88, 617.42 557.92 M-0.32 1292.93 C185.93 1078.68, 372.17 864.43, 617.03 582.75 M-0.32 1292.93 C179.53 1086.04, 359.39 879.14, 617.03 582.75 M-0.05 1317.02 C178.01 1112.17, 356.08 907.33, 617.3 606.83 M-0.05 1317.02 C230.95 1051.27, 461.96 785.53, 617.3 606.83 M0.21 1341.1 C136.21 1184.65, 272.21 1028.2, 617.56 630.92 M0.21 1341.1 C128.06 1194.02, 255.91 1046.95, 617.56 630.92 M-0.18 1365.93 C155.64 1186.68, 311.46 1007.43, 617.17 655.75 M-0.18 1365.93 C203.02 1132.18, 406.22 898.43, 617.17 655.75 M0.09 1390.02 C135.05 1234.76, 270.01 1079.5, 617.44 679.83 M0.09 1390.02 C241.69 1112.09, 483.29 834.16, 617.44 679.83 M-0.3 1414.85 C123.33 1272.64, 246.95 1130.42, 617.05 704.67 M-0.3 1414.85 C177.42 1210.41, 355.14 1005.97, 617.05 704.67 M-0.03 1438.93 C181.99 1229.54, 364.01 1020.15, 617.32 728.75 M-0.03 1438.93 C177.34 1234.89, 354.71 1030.85, 617.32 728.75 M0.23 1463.02 C237.84 1189.68, 475.44 916.35, 617.58 752.83 M0.23 1463.02 C224.89 1204.58, 449.54 946.15, 617.58 752.83 M-0.16 1487.85 C189.09 1270.15, 378.34 1052.44, 617.19 777.67 M-0.16 1487.85 C202.83 1254.34, 405.82 1020.82, 617.19 777.67 M0.11 1511.93 C135.01 1356.74, 269.92 1201.55, 617.46 801.75 M0.11 1511.93 C223.2 1255.3, 446.29 998.66, 617.46 801.75 M-0.28 1536.77 C228.55 1273.53, 457.39 1010.28, 617.07 826.59 M-0.28 1536.77 C209.81 1295.09, 419.91 1053.4, 617.07 826.59 M-0.01 1560.85 C168.42 1367.1, 336.85 1173.34, 617.34 850.67 M-0.01 1560.85 C231.53 1294.49, 463.07 1028.14, 617.34 850.67 M0.25 1584.93 C162.77 1397.98, 325.29 1211.02, 616.95 875.51 M0.25 1584.93 C208.02 1345.92, 415.8 1106.9, 616.95 875.51 M-0.14 1609.77 C171.98 1411.78, 344.09 1213.78, 617.21 899.59 M-0.14 1609.77 C240.86 1332.54, 481.85 1055.31, 617.21 899.59 M0.13 1633.85 C136.46 1477.03, 272.78 1320.2, 617.48 923.67 M0.13 1633.85 C200.35 1403.53, 400.56 1173.2, 617.48 923.67 M-0.26 1658.69 C201.49 1426.6, 403.25 1194.51, 617.09 948.51 M-0.26 1658.69 C174.65 1457.48, 349.56 1256.26, 617.09 948.51 M0 1682.77 C208.43 1443, 416.86 1203.23, 617.36 972.59 M0 1682.77 C184.51 1470.52, 369.01 1258.27, 617.36 972.59 M0.27 1706.85 C164.69 1517.71, 329.11 1328.56, 616.97 997.43 M0.27 1706.85 C136.3 1550.37, 272.33 1393.88, 616.97 997.43 M-0.12 1731.69 C227.28 1470.09, 454.69 1208.49, 617.23 1021.51 M-0.12 1731.69 C152.69 1555.9, 305.49 1380.12, 617.23 1021.51 M0.15 1755.77 C189.89 1537.49, 379.64 1319.22, 617.5 1045.59 M0.15 1755.77 C160.29 1571.55, 320.44 1387.32, 617.5 1045.59 M-0.24 1780.61 C201.54 1548.48, 403.32 1316.36, 617.11 1070.42 M-0.24 1780.61 C214.51 1533.56, 429.27 1286.51, 617.11 1070.42 M0.02 1804.69 C134.32 1650.2, 268.61 1495.72, 617.38 1094.51 M0.02 1804.69 C214.68 1557.75, 429.34 1310.82, 617.38 1094.51 M0.29 1828.77 C176.85 1625.66, 353.41 1422.55, 616.99 1119.34 M0.29 1828.77 C227.31 1567.61, 454.33 1306.45, 616.99 1119.34 M-0.1 1853.61 C200.55 1622.78, 401.21 1391.96, 617.25 1143.42 M-0.1 1853.61 C199.92 1623.51, 399.95 1393.4, 617.25 1143.42 M0.17 1877.69 C234.31 1608.34, 468.46 1338.98, 617.52 1167.51 M0.17 1877.69 C165.08 1687.98, 329.99 1498.27, 617.52 1167.51 M-0.22 1902.52 C195.53 1677.34, 391.28 1452.15, 617.13 1192.34 M-0.22 1902.52 C195.75 1677.08, 391.73 1451.63, 617.13 1192.34 M0.04 1926.61 C245.57 1644.16, 491.1 1361.71, 617.39 1216.42 M0.04 1926.61 C243.49 1646.56, 486.93 1366.5, 617.39 1216.42 M0.31 1950.69 C148.54 1780.17, 296.76 1609.66, 617 1241.26 M0.31 1950.69 C214.81 1703.94, 429.31 1457.18, 617 1241.26 M-0.08 1975.52 C242.5 1696.47, 485.08 1417.41, 617.27 1265.34 M-0.08 1975.52 C178.85 1769.68, 357.79 1563.84, 617.27 1265.34 M0.19 1999.61 C185.91 1785.96, 371.62 1572.31, 617.54 1289.42 M0.19 1999.61 C201.14 1768.43, 402.1 1537.26, 617.54 1289.42 M-0.2 2024.44 C169.96 1828.69, 340.13 1632.94, 617.15 1314.26 M-0.2 2024.44 C175.34 1822.5, 350.89 1620.55, 617.15 1314.26 M0.06 2048.52 C162.98 1861.11, 325.9 1673.69, 617.41 1338.34 M0.06 2048.52 C155.36 1869.87, 310.66 1691.22, 617.41 1338.34 M-0.33 2073.36 C132.95 1920.04, 266.23 1766.73, 617.02 1363.18 M-0.33 2073.36 C184.4 1860.86, 369.12 1648.36, 617.02 1363.18 M-0.06 2097.44 C156.94 1916.83, 313.94 1736.22, 617.29 1387.26 M-0.06 2097.44 C134.28 1942.9, 268.62 1788.37, 617.29 1387.26 M0.21 2121.52 C150.3 1948.86, 300.39 1776.2, 617.56 1411.34 M0.21 2121.52 C152.32 1946.54, 304.42 1771.56, 617.56 1411.34 M-0.18 2146.36 C219.72 1893.39, 439.62 1640.42, 617.17 1436.18 M-0.18 2146.36 C126.94 2000.12, 254.07 1853.87, 617.17 1436.18 M0.08 2170.44 C152.05 1995.62, 304.03 1820.79, 617.43 1460.26 M0.08 2170.44 C141.12 2008.19, 282.16 1845.95, 617.43 1460.26 M-0.31 2195.28 C131.24 2043.95, 262.78 1892.63, 617.04 1485.1 M-0.31 2195.28 C178.37 1989.74, 357.04 1784.2, 617.04 1485.1 M-0.04 2219.36 C230.36 1954.31, 460.77 1689.26, 617.31 1509.18 M-0.04 2219.36 C209.02 1978.86, 418.08 1738.37, 617.31 1509.18 M0.22 2243.44 C140.87 2081.65, 281.51 1919.86, 617.58 1533.26 M0.22 2243.44 C143.21 2078.95, 286.2 1914.46, 617.58 1533.26 M-0.17 2268.28 C142.96 2103.64, 286.08 1938.99, 617.19 1558.1 M-0.17 2268.28 C160.82 2083.09, 321.81 1897.89, 617.19 1558.1 M0.1 2292.36 C224 2034.8, 447.89 1777.23, 617.45 1582.18 M0.1 2292.36 C177.08 2088.77, 354.05 1885.19, 617.45 1582.18 M-0.29 2317.2 C178.1 2111.98, 356.49 1906.77, 617.06 1607.02 M-0.29 2317.2 C165.97 2125.94, 332.23 1934.68, 617.06 1607.02 M-0.02 2341.28 C209.43 2100.33, 418.89 1859.38, 617.33 1631.1 M-0.02 2341.28 C246.51 2057.67, 493.05 1774.07, 617.33 1631.1 M0.24 2365.36 C167.32 2173.16, 334.4 1980.96, 616.94 1655.93 M0.24 2365.36 C141.68 2202.66, 283.12 2039.95, 616.94 1655.93 M-0.15 2390.2 C147.18 2220.72, 294.51 2051.24, 617.21 1680.01 M-0.15 2390.2 C126.44 2244.58, 253.03 2098.96, 617.21 1680.01 M0.12 2414.28 C224.47 2156.19, 448.82 1898.11, 617.47 1704.1 M0.12 2414.28 C244.96 2132.62, 489.8 1850.97, 617.47 1704.1 M-0.27 2439.11 C185.64 2225.25, 371.55 2011.38, 617.08 1728.93 M-0.27 2439.11 C141.6 2275.91, 283.47 2112.71, 617.08 1728.93 M0 2463.2 C130.56 2313, 261.12 2162.81, 617.35 1753.01 M0 2463.2 C134.21 2308.81, 268.42 2154.41, 617.35 1753.01 M0.26 2487.28 C201.64 2255.63, 403.01 2023.97, 616.96 1777.85 M0.26 2487.28 C179.27 2281.36, 358.27 2075.44, 616.96 1777.85 M-0.13 2512.11 C197.18 2285.14, 394.49 2058.17, 617.23 1801.93 M-0.13 2512.11 C202.8 2278.67, 405.73 2045.23, 617.23 1801.93 M0.14 2536.2 C169.26 2341.64, 338.39 2147.09, 617.49 1826.01 M0.14 2536.2 C181.46 2327.61, 362.77 2119.03, 617.49 1826.01 M-0.25 2561.03 C155.06 2382.37, 310.36 2203.71, 617.1 1850.85 M-0.25 2561.03 C220.84 2306.7, 441.93 2052.37, 617.1 1850.85 M0.02 2585.11 C161.7 2399.12, 323.38 2213.12, 617.37 1874.93 M0.02 2585.11 C146.96 2416.08, 293.9 2247.04, 617.37 1874.93 M0.28 2609.2 C142.49 2445.61, 284.69 2282.02, 616.98 1899.77 M0.28 2609.2 C200 2379.45, 399.72 2149.7, 616.98 1899.77 M-0.11 2634.03 C227.24 2372.5, 454.58 2110.98, 617.24 1923.85 M-0.11 2634.03 C130.61 2483.66, 261.33 2333.28, 617.24 1923.85 M0.16 2658.11 C209.58 2417.2, 419 2176.29, 617.51 1947.93 M0.16 2658.11 C145.07 2491.41, 289.98 2324.71, 617.51 1947.93 M-0.23 2682.95 C141.93 2519.41, 284.09 2355.87, 617.12 1972.77 M-0.23 2682.95 C243.02 2403.13, 486.27 2123.3, 617.12 1972.77 M0.04 2707.03 C197.23 2480.19, 394.42 2253.34, 617.39 1996.85 M0.04 2707.03 C179.21 2500.92, 358.38 2294.81, 617.39 1996.85 M0.3 2731.11 C151.14 2557.59, 301.99 2384.06, 617 2021.69 M0.3 2731.11 C157.33 2550.48, 314.36 2369.84, 617 2021.69 M-0.09 2755.95 C229.87 2491.41, 459.83 2226.88, 617.26 2045.77 M-0.09 2755.95 C173.03 2556.8, 346.15 2357.65, 617.26 2045.77 M0.18 2780.03 C226.88 2519.24, 453.59 2258.44, 617.53 2069.85 M0.18 2780.03 C218.7 2528.65, 437.22 2277.27, 617.53 2069.85 M-0.21 2804.87 C221.5 2549.82, 443.21 2294.77, 617.14 2094.69 M-0.21 2804.87 C238.11 2530.72, 476.42 2256.56, 617.14 2094.69 M0.05 2828.95 C193.61 2606.29, 387.17 2383.62, 617.41 2118.77 M0.05 2828.95 C211.84 2585.32, 423.63 2341.68, 617.41 2118.77 M0.32 2853.03 C246.64 2569.67, 492.96 2286.31, 617.02 2143.61 M0.32 2853.03 C233.68 2584.59, 467.03 2316.14, 617.02 2143.61 M-0.07 2877.87 C221.11 2623.43, 442.3 2368.98, 617.28 2167.69 M-0.07 2877.87 C224.37 2619.68, 448.82 2361.48, 617.28 2167.69 M0.2 2901.95 C168.6 2708.22, 337.01 2514.49, 617.55 2191.77 M0.2 2901.95 C135.69 2746.08, 271.18 2590.22, 617.55 2191.77 M-0.19 2926.79 C206.99 2688.45, 414.17 2450.12, 617.16 2216.61 M-0.19 2926.79 C152.75 2750.85, 305.69 2574.91, 617.16 2216.61 M0.07 2950.87 C134.69 2796.01, 269.31 2641.15, 617.43 2240.69 M0.07 2950.87 C161.73 2764.9, 323.39 2578.93, 617.43 2240.69 M-0.32 2975.7 C147.23 2805.98, 294.77 2636.25, 617.04 2265.52 M-0.32 2975.7 C196.31 2749.51, 392.94 2523.31, 617.04 2265.52 M-0.05 2999.79 C205.79 2763, 411.63 2526.21, 617.3 2289.6 M-0.05 2999.79 C153.52 2823.12, 307.1 2646.46, 617.3 2289.6 M0.22 3023.87 C136.86 2866.68, 273.51 2709.48, 617.57 2313.69 M0.22 3023.87 C240.6 2747.34, 480.98 2470.81, 617.57 2313.69 M-0.17 3048.7 C232.23 2781.36, 464.63 2514.01, 617.18 2338.52 M-0.17 3048.7 C193.69 2825.7, 387.54 2602.69, 617.18 2338.52 M0.09 3072.79 C243.89 2792.33, 487.69 2511.88, 617.45 2362.6 M0.09 3072.79 C225.12 2813.92, 450.15 2555.06, 617.45 2362.6 M-0.3 3097.62 C224.47 2839.06, 449.24 2580.49, 617.06 2387.44 M-0.3 3097.62 C235.59 2826.27, 471.47 2554.92, 617.06 2387.44 M-0.03 3121.7 C142.77 2957.43, 285.58 2793.15, 617.32 2411.52 M-0.03 3121.7 C147.31 2952.21, 294.66 2782.71, 617.32 2411.52 M0.24 3145.79 C230.04 2881.42, 459.85 2617.06, 616.93 2436.36 M0.24 3145.79 C227.22 2884.67, 454.21 2623.55, 616.93 2436.36 M-0.15 3170.62 C223.07 2913.84, 446.28 2657.06, 617.2 2460.44 M-0.15 3170.62 C183.36 2959.51, 366.88 2748.4, 617.2 2460.44 M0.11 3194.7 C208.67 2954.79, 417.22 2714.87, 617.46 2484.52 M0.11 3194.7 C233.26 2926.49, 466.42 2658.28, 617.46 2484.52 M-0.28 3219.54 C231.89 2952.47, 464.05 2685.39, 617.07 2509.36 M-0.28 3219.54 C195.01 2994.89, 390.29 2770.25, 617.07 2509.36 M-0.01 3243.62 C157.22 3062.75, 314.45 2881.87, 617.34 2533.44 M-0.01 3243.62 C189.65 3025.44, 379.31 2807.26, 617.34 2533.44 M0.26 3267.7 C138.73 3108.41, 277.2 2949.11, 616.95 2558.28 M0.26 3267.7 C223.8 3010.55, 447.34 2753.39, 616.95 2558.28 M-0.13 3292.54 C233.03 3024.32, 466.19 2756.09, 617.22 2582.36 M-0.13 3292.54 C150.31 3119.48, 300.75 2946.41, 617.22 2582.36 M0.13 3316.62 C133.56 3163.13, 267 3009.63, 617.48 2606.44 M0.13 3316.62 C242.77 3037.49, 485.42 2758.37, 617.48 2606.44 M-0.26 3341.46 C135.95 3184.77, 272.15 3028.09, 617.09 2631.28 M-0.26 3341.46 C163.14 3153.5, 326.53 2965.53, 617.09 2631.28 M0.01 3365.54 C135.43 3209.76, 270.84 3053.98, 617.36 2655.36 M0.01 3365.54 C157.97 3183.82, 315.94 3002.11, 617.36 2655.36 M0.28 3389.62 C220.26 3136.56, 440.24 2883.5, 616.97 2680.2 M0.28 3389.62 C147.27 3220.52, 294.27 3051.42, 616.97 2680.2 M-0.11 3414.46 C161.68 3228.34, 323.47 3042.22, 617.24 2704.28 M-0.11 3414.46 C178.62 3208.85, 357.36 3003.24, 617.24 2704.28 M0.15 3438.54 C135.05 3283.36, 269.95 3128.18, 617.5 2728.36 M0.15 3438.54 C138.21 3279.73, 276.26 3120.91, 617.5 2728.36 M-0.24 3463.38 C204.45 3227.91, 409.14 2992.45, 617.11 2753.2 M-0.24 3463.38 C199.25 3233.9, 398.73 3004.42, 617.11 2753.2 M0.03 3487.46 C183.97 3275.85, 367.92 3064.25, 617.38 2777.28 M0.03 3487.46 C166.65 3295.78, 333.27 3104.1, 617.38 2777.28 M0.29 3511.54 C231.2 3245.91, 462.11 2980.28, 616.99 2802.11 M0.29 3511.54 C170.79 3315.4, 341.29 3119.27, 616.99 2802.11 M-0.1 3536.38 C213.74 3290.38, 427.58 3044.39, 617.26 2826.2 M-0.1 3536.38 C134.05 3382.06, 268.19 3227.75, 617.26 2826.2 M0.17 3560.46 C183.34 3349.75, 366.51 3139.04, 617.52 2850.28 M0.17 3560.46 C222.39 3304.83, 444.61 3049.2, 617.52 2850.28 M-0.22 3585.29 C230.96 3319.35, 462.14 3053.41, 617.13 2875.11 M-0.22 3585.29 C182.82 3374.73, 365.86 3164.17, 617.13 2875.11 M0.05 3609.38 C224.61 3351.05, 449.17 3092.73, 617.4 2899.19 M0.05 3609.38 C169.57 3414.36, 339.09 3219.35, 617.4 2899.19 M0.31 3633.46 C155.9 3454.48, 311.49 3275.5, 617.01 2924.03 M0.31 3633.46 C203.12 3400.16, 405.93 3166.85, 617.01 2924.03 M-0.08 3658.29 C123.6 3516.03, 247.27 3373.76, 617.28 2948.11 M-0.08 3658.29 C130.83 3507.7, 261.74 3357.1, 617.28 2948.11 M0.19 3682.38 C191.13 3462.73, 382.07 3243.07, 617.54 2972.19 M0.19 3682.38 C201.66 3450.61, 403.13 3218.84, 617.54 2972.19 M-0.2 3707.21 C240.92 3429.84, 482.04 3152.46, 617.15 2997.03 M-0.2 3707.21 C156.98 3526.4, 314.15 3345.59, 617.15 2997.03 M0.07 3731.29 C206.44 3493.89, 412.81 3256.49, 617.42 3021.11 M0.07 3731.29 C180.05 3524.24, 360.04 3317.19, 617.42 3021.11 M-0.32 3756.13 C171.29 3558.71, 342.91 3361.29, 617.03 3045.95 M-0.32 3756.13 C231.26 3489.72, 462.85 3223.31, 617.03 3045.95 M-0.06 3780.21 C231.74 3513.56, 463.53 3246.92, 617.29 3070.03 M-0.06 3780.21 C134.32 3625.63, 268.7 3471.04, 617.29 3070.03 M0.21 3804.29 C225.82 3544.76, 451.44 3285.22, 617.56 3094.11 M0.21 3804.29 C146.63 3635.86, 293.05 3467.42, 617.56 3094.11 M-0.18 3829.13 C209.97 3587.38, 420.12 3345.63, 617.17 3118.95 M-0.18 3829.13 C177.96 3624.21, 356.1 3419.28, 617.17 3118.95 M0.09 3853.21 C194.69 3629.34, 389.3 3405.48, 617.44 3143.03 M0.09 3853.21 C243.87 3572.77, 487.65 3292.33, 617.44 3143.03 M-0.3 3878.05 C244.2 3596.79, 488.69 3315.52, 617.05 3167.87 M-0.3 3878.05 C171.73 3680.15, 343.76 3482.25, 617.05 3167.87 M12.43 3887.79 C223.5 3644.99, 434.56 3402.18, 617.31 3191.95 M12.43 3887.79 C189.68 3683.89, 366.93 3479.98, 617.31 3191.95 M33.03 3888.48 C248.56 3640.54, 464.08 3392.61, 617.58 3216.03 M33.03 3888.48 C239.42 3651.05, 445.81 3413.63, 617.58 3216.03 M54.29 3888.41 C193.66 3728.08, 333.03 3567.75, 617.19 3240.87 M54.29 3888.41 C204.6 3715.5, 354.91 3542.59, 617.19 3240.87 M75.55 3888.34 C262.01 3673.85, 448.46 3459.35, 617.46 3264.95 M75.55 3888.34 C220.52 3721.57, 365.49 3554.8, 617.46 3264.95 M96.81 3888.27 C279.72 3677.86, 462.63 3467.45, 617.07 3289.79 M96.81 3888.27 C275.2 3683.06, 453.58 3477.85, 617.07 3289.79 M118.07 3888.2 C251.49 3734.72, 384.9 3581.25, 617.33 3313.87 M118.07 3888.2 C301.96 3676.66, 485.85 3465.12, 617.33 3313.87 M139.33 3888.13 C311.58 3689.99, 483.82 3491.85, 616.94 3338.7 M139.33 3888.13 C252.65 3757.78, 365.96 3627.43, 616.94 3338.7 M160.59 3888.06 C317.03 3708.1, 473.47 3528.14, 617.21 3362.79 M160.59 3888.06 C339.8 3681.91, 519 3475.77, 617.21 3362.79 M181.85 3887.99 C327.31 3720.67, 472.77 3553.34, 617.48 3386.87 M181.85 3887.99 C337.55 3708.88, 493.25 3529.78, 617.48 3386.87 M203.11 3887.93 C299.99 3776.48, 396.87 3665.03, 617.09 3411.7 M203.11 3887.93 C313.85 3760.54, 424.59 3633.15, 617.09 3411.7 M224.37 3887.86 C338.3 3756.8, 452.22 3625.75, 617.35 3435.79 M224.37 3887.86 C303.47 3796.87, 382.56 3705.88, 617.35 3435.79 M245.63 3887.79 C343.92 3774.73, 442.2 3661.67, 616.96 3460.62 M245.63 3887.79 C361.37 3754.65, 477.1 3621.52, 616.96 3460.62 M266.24 3888.47 C338.71 3805.1, 411.18 3721.73, 617.23 3484.7 M266.24 3888.47 C391.66 3744.19, 517.08 3599.91, 617.23 3484.7 M287.5 3888.4 C359.15 3805.98, 430.8 3723.55, 617.5 3508.78 M287.5 3888.4 C364.65 3799.65, 441.81 3710.89, 617.5 3508.78 M308.76 3888.33 C376.88 3809.97, 445 3731.61, 617.11 3533.62 M308.76 3888.33 C402.73 3780.23, 496.71 3672.12, 617.11 3533.62 M330.02 3888.27 C425.8 3778.08, 521.59 3667.89, 617.37 3557.7 M330.02 3888.27 C425.81 3778.07, 521.61 3667.87, 617.37 3557.7 M351.28 3888.2 C412.35 3817.94, 473.42 3747.69, 616.98 3582.54 M351.28 3888.2 C407.97 3822.98, 464.66 3757.77, 616.98 3582.54 M372.54 3888.13 C449.53 3799.56, 526.51 3711, 617.25 3606.62 M372.54 3888.13 C446.06 3803.55, 519.58 3718.98, 617.25 3606.62 M393.8 3888.06 C458.51 3813.62, 523.22 3739.17, 617.52 3630.7 M393.8 3888.06 C470.64 3799.66, 547.48 3711.27, 617.52 3630.7 M415.06 3887.99 C480.05 3813.22, 545.04 3738.46, 617.13 3655.54 M415.06 3887.99 C458.65 3837.84, 502.25 3787.69, 617.13 3655.54 M436.32 3887.92 C475.17 3843.23, 514.02 3798.54, 617.39 3679.62 M436.32 3887.92 C480.89 3836.64, 525.47 3785.37, 617.39 3679.62 M457.58 3887.85 C517.28 3819.17, 576.99 3750.49, 617 3704.46 M457.58 3887.85 C513.48 3823.55, 569.37 3759.25, 617 3704.46 M478.84 3887.78 C531.51 3827.2, 584.17 3766.61, 617.27 3728.54 M478.84 3887.78 C529.1 3829.96, 579.36 3772.15, 617.27 3728.54 M499.44 3888.47 C541.09 3840.57, 582.73 3792.66, 617.53 3752.62 M499.44 3888.47 C542.78 3838.61, 586.13 3788.75, 617.53 3752.62 M520.7 3888.4 C551.67 3852.77, 582.64 3817.14, 617.14 3777.46 M520.7 3888.4 C542.55 3863.27, 564.39 3838.15, 617.14 3777.46 M541.96 3888.33 C571.75 3854.06, 601.54 3819.79, 617.41 3801.54 M541.96 3888.33 C565.92 3860.77, 589.88 3833.21, 617.41 3801.54 M563.22 3888.26 C580.98 3867.83, 598.74 3847.41, 617.02 3826.38 M563.22 3888.26 C577.17 3872.22, 591.12 3856.17, 617.02 3826.38 M584.48 3888.19 C594.3 3876.9, 604.12 3865.6, 617.29 3850.46 M584.48 3888.19 C592.53 3878.93, 600.58 3869.67, 617.29 3850.46 M605.74 3888.12 C608.82 3884.59, 611.89 3881.06, 617.55 3874.54 M605.74 3888.12 C610.17 3883.03, 614.6 3877.93, 617.55 3874.54" stroke="#a5d8ff" stroke-width="2" fill="none"></path><path d="M0 0 C216.41 0, 432.83 0, 617 0 M0 0 C184.22 0, 368.44 0, 617 0 M617 0 C617 1220.79, 617 2441.59, 617 3888 M617 0 C617 889.41, 617 1778.82, 617 3888 M617 3888 C373.6 3888, 130.21 3888, 0 3888 M617 3888 C389.71 3888, 162.41 3888, 0 3888 M0 3888 C0 3092.5, 0 2297, 0 0 M0 3888 C0 2979.39, 0 2070.78, 0 0" stroke="transparent" stroke-width="4" fill="none"></path></g><g stroke-linecap="round"><g transform="translate(833 345.9999999999999) rotate(0 0 0)"><path d="M0.04 -0.35 C0.04 -0.38, -0.26 0.07, -0.31 0.16 M-0.36 0.24 C-0.23 0.25, 0.2 -0.28, 0.32 -0.38" stroke="#1971c2" stroke-width="1" fill="none"></path></g><g transform="translate(833 345.9999999999999) rotate(0 0 0)"><path d="M0.32 -0.38 C0.32 -0.38, 0.32 -0.38, 0.32 -0.38 M0.32 -0.38 C0.32 -0.38, 0.32 -0.38, 0.32 -0.38" stroke="#1971c2" stroke-width="1" fill="none"></path></g><g transform="translate(833 345.9999999999999) rotate(0 0 0)"><path d="M0.32 -0.38 C0.32 -0.38, 0.32 -0.38, 0.32 -0.38 M0.32 -0.38 C0.32 -0.38, 0.32 -0.38, 0.32 -0.38" stroke="#1971c2" stroke-width="1" fill="none"></path></g></g><mask></mask><g transform="translate(281 45.599999999999994) rotate(0 48.707977294921875 22.5)"><text x="0" y="0" font-family="Virgil, Segoe UI Emoji" font-size="36px" fill="#1e1e1e" text-anchor="start" style="white-space: pre;" direction="ltr" dominant-baseline="text-before-edge">logica</text></g><g transform="translate(62 212) rotate(0 281.285888671875 67.5)"><text x="281.285888671875" y="0" font-family="Virgil, Segoe UI Emoji" font-size="36px" fill="#1e1e1e" text-anchor="middle" style="white-space: pre;" direction="ltr" dominant-baseline="text-before-edge">estructura del pensamiento que</text><text x="281.285888671875" y="45" font-family="Virgil, Segoe UI Emoji" font-size="36px" fill="#1e1e1e" text-anchor="middle" style="white-space: pre;" direction="ltr" dominant-baseline="text-before-edge">permite verificar si un razona-</text><text x="281.285888671875" y="90" font-family="Virgil, Segoe UI Emoji" font-size="36px" fill="#1e1e1e" text-anchor="middle" style="white-space: pre;" direction="ltr" dominant-baseline="text-before-edge">miento es correcto.</text></g><g stroke-linecap="round"><g transform="translate(320 101) rotate(0 1 46)"><path d="M-0.45 -0.95 C0.01 14.47, 2.75 77.47, 2.99 93.07 M1.52 1.17 C1.88 16.23, 2.25 76.59, 2.56 91.52" stroke="#1e1e1e" stroke-width="4" fill="none"></path></g><g transform="translate(320 101) rotate(0 1 46)"><path d="M-6.29 68.13 C-4.93 77.29, 1.27 81.46, 2.56 91.52 M-6.29 68.13 C-3.31 76.93, -0.83 85.26, 2.56 91.52" stroke="#1e1e1e" stroke-width="4" fill="none"></path></g><g transform="translate(320 101) rotate(0 1 46)"><path d="M10.81 67.92 C6.7 77.08, 7.43 81.32, 2.56 91.52 M10.81 67.92 C7.67 76.86, 4.04 85.28, 2.56 91.52" stroke="#1e1e1e" stroke-width="4" fill="none"></path></g></g><mask></mask><g stroke-linecap="round"><g transform="translate(323.3655122564851 364) rotate(0 -0.4959975913473045 51.5)"><path d="M-0.09 1.16 C0.13 18.37, 0.34 86.56, 0.14 103.35 M-1.6 0.72 C-1.33 17.55, -0.11 84.43, -0.22 101.42" stroke="#1e1e1e" stroke-width="4" fill="none"></path></g><g transform="translate(323.3655122564851 364) rotate(0 -0.4959975913473045 51.5)"><path d="M-8.95 77.99 C-5.23 84.63, -4.8 86.96, -0.22 101.42 M-8.95 77.99 C-7.34 81.93, -5.59 87.28, -0.22 101.42" stroke="#1e1e1e" stroke-width="4" fill="none"></path></g><g transform="translate(323.3655122564851 364) rotate(0 -0.4959975913473045 51.5)"><path d="M8.15 77.86 C8.41 84.51, 5.37 86.86, -0.22 101.42 M8.15 77.86 C6.2 81.72, 4.4 87.09, -0.22 101.42" stroke="#1e1e1e" stroke-width="4" fill="none"></path></g></g><mask></mask><g transform="translate(109.64810180664062 469) rotate(0 215.35189819335938 157.5)"><text x="215.35189819335938" y="0" font-family="Virgil, Segoe UI Emoji" font-size="36px" fill="#1e1e1e" text-anchor="middle" style="white-space: pre;" direction="ltr" dominant-baseline="text-before-edge">logica matematica:</text><text x="215.35189819335938" y="45" font-family="Virgil, Segoe UI Emoji" font-size="36px" fill="#1e1e1e" text-anchor="middle" style="white-space: pre;" direction="ltr" dominant-baseline="text-before-edge">Ciencia que estudia los </text><text x="215.35189819335938" y="90" font-family="Virgil, Segoe UI Emoji" font-size="36px" fill="#1e1e1e" text-anchor="middle" style="white-space: pre;" direction="ltr" dominant-baseline="text-before-edge">procedimientos para</text><text x="215.35189819335938" y="135" font-family="Virgil, Segoe UI Emoji" font-size="36px" fill="#1e1e1e" text-anchor="middle" style="white-space: pre;" direction="ltr" dominant-baseline="text-before-edge"> distinguir si un </text><text x="215.35189819335938" y="180" font-family="Virgil, Segoe UI Emoji" font-size="36px" fill="#1e1e1e" text-anchor="middle" style="white-space: pre;" direction="ltr" dominant-baseline="text-before-edge">razonamiento es </text><text x="215.35189819335938" y="225" font-family="Virgil, Segoe UI Emoji" font-size="36px" fill="#1e1e1e" text-anchor="middle" style="white-space: pre;" direction="ltr" dominant-baseline="text-before-edge">correcto o incorrecto</text><text x="215.35189819335938" y="270" font-family="Virgil, Segoe UI Emoji" font-size="36px" fill="#1e1e1e" text-anchor="middle" style="white-space: pre;" direction="ltr" dominant-baseline="text-before-edge"></text></g><g stroke-linecap="round"><g transform="translate(320 761) rotate(0 0.5 86.5)"><path d="M-0.06 0.02 C0.38 29.08, 1.87 145.31, 2.16 174.17 M-1.56 -1.02 C-1.12 27.76, 1.36 143.4, 1.81 172.66" stroke="#1e1e1e" stroke-width="4" fill="none"></path></g><g transform="translate(320 761) rotate(0 0.5 86.5)"><path d="M-7.18 149.34 C-4.88 157.25, -0.65 162.35, 1.81 172.66 M-7.18 149.34 C-3.7 156.83, -1.72 163.27, 1.81 172.66" stroke="#1e1e1e" stroke-width="4" fill="none"></path></g><g transform="translate(320 761) rotate(0 0.5 86.5)"><path d="M9.92 149.01 C7.83 157, 7.68 162.18, 1.81 172.66 M9.92 149.01 C8.03 156.48, 4.64 163.02, 1.81 172.66" stroke="#1e1e1e" stroke-width="4" fill="none"></path></g></g><mask></mask><g transform="translate(96.74008178710938 940) rotate(0 235.25991821289062 90)"><text x="235.25991821289062" y="0" font-family="Virgil, Segoe UI Emoji" font-size="36px" fill="#1e1e1e" text-anchor="middle" style="white-space: pre;" direction="ltr" dominant-baseline="text-before-edge">Lógica Proposicional</text><text x="235.25991821289062" y="45" font-family="Virgil, Segoe UI Emoji" font-size="36px" fill="#1e1e1e" text-anchor="middle" style="white-space: pre;" direction="ltr" dominant-baseline="text-before-edge">Proposicion o enunciado: </text><text x="235.25991821289062" y="90" font-family="Virgil, Segoe UI Emoji" font-size="36px" fill="#1e1e1e" text-anchor="middle" style="white-space: pre;" direction="ltr" dominant-baseline="text-before-edge">es una oracion que puede </text><text x="235.25991821289062" y="135" font-family="Virgil, Segoe UI Emoji" font-size="36px" fill="#1e1e1e" text-anchor="middle" style="white-space: pre;" direction="ltr" dominant-baseline="text-before-edge">ser verdadera o falsa</text></g><g mask="url(#mask-2BXUslTuY-ASA0R6rbJ0G)" stroke-linecap="round"><g transform="translate(311 1135) rotate(0 -102.5 42.5)"><path d="M0.11 -0.32 C-33.88 -0.25, -172.05 -14.3, -203.99 -0.17 C-235.94 13.95, -193.85 70.38, -191.57 84.43 M-1.28 -1.53 C-35.35 -1.22, -172.52 -13.22, -204.41 1.27 C-236.3 15.77, -195.09 71.54, -192.63 85.44" stroke="#1e1e1e" stroke-width="4" fill="none"></path></g><g transform="translate(311 1135) rotate(0 -102.5 42.5)"><path d="M-210.03 67.5 C-205.46 74.51, -200.02 77.25, -192.63 85.44 M-210.03 67.5 C-206.09 71.24, -202.07 77.12, -192.63 85.44" stroke="#1e1e1e" stroke-width="4" fill="none"></path></g><g transform="translate(311 1135) rotate(0 -102.5 42.5)"><path d="M-194.42 60.51 C-194.54 69.62, -193.77 74.44, -192.63 85.44 M-194.42 60.51 C-194.38 65.9, -194.29 73.54, -192.63 85.44" stroke="#1e1e1e" stroke-width="4" fill="none"></path></g></g><mask id="mask-2BXUslTuY-ASA0R6rbJ0G"><rect x="0" y="0" fill="#fff" width="616" height="1320"></rect><rect x="86.38001251220703" y="1112.5" fill="#000" width="39.23997497558594" height="45" opacity="1"></rect></mask><g transform="translate(86.38001251220703 1112.5) rotate(0 116.4453030009729 61.98500127350235)"><text x="19.61998748779297" y="0" font-family="Virgil, Segoe UI Emoji" font-size="36px" fill="#1e1e1e" text-anchor="middle" style="white-space: pre;" direction="ltr" dominant-baseline="text-before-edge">es</text></g><g mask="url(#mask-JPxGhqTUJ_YpHOI8jt7I1)" stroke-linecap="round"><g transform="translate(358 1127) rotate(0 85.5 46.5)"><path d="M-0.78 0.97 C27.51 4.4, 145.41 5.85, 170.28 21 C195.15 36.16, 152.01 80.04, 148.44 91.91 M1.01 0.44 C29.65 4.03, 148.13 7.17, 172.61 22.54 C197.09 37.91, 151.75 80.93, 147.9 92.65" stroke="#1e1e1e" stroke-width="4" fill="none"></path></g><g transform="translate(358 1127) rotate(0 85.5 46.5)"><path d="M153.87 68.38 C153.53 75.47, 149.86 85.74, 147.9 92.65 M153.87 68.38 C153.02 74.3, 151.45 79.03, 147.9 92.65" stroke="#1e1e1e" stroke-width="4" fill="none"></path></g><g transform="translate(358 1127) rotate(0 85.5 46.5)"><path d="M168.08 77.89 C162.82 81.63, 154.27 88.63, 147.9 92.65 M168.08 77.89 C164.19 81.73, 159.65 84.47, 147.9 92.65" stroke="#1e1e1e" stroke-width="4" fill="none"></path></g></g><mask id="mask-JPxGhqTUJ_YpHOI8jt7I1"><rect x="0" y="0" fill="#fff" width="629" height="1320"></rect><rect x="482.00201416015625" y="1125.5" fill="#000" width="93.9959716796875" height="45" opacity="1"></rect></mask><g transform="translate(482.00201416015625 1125.5) rotate(0 -34.479327373057686 48.0462079822272)"><text x="46.99798583984375" y="0" font-family="Virgil, Segoe UI Emoji" font-size="36px" fill="#1e1e1e" text-anchor="middle" style="white-space: pre;" direction="ltr" dominant-baseline="text-before-edge">no es</text></g><g transform="translate(33.33612060546875 1233) rotate(0 140.83436584472656 71.5)"><text x="0" y="0" font-family="Virgil, Segoe UI Emoji" font-size="16.342857142857145px" fill="#1e1e1e" text-anchor="start" style="white-space: pre;" direction="ltr" dominant-baseline="text-before-edge">-5 es mayor que 3</text><text x="0" y="20.42857142857143" font-family="Virgil, Segoe UI Emoji" font-size="16.342857142857145px" fill="#1e1e1e" text-anchor="start" style="white-space: pre;" direction="ltr" dominant-baseline="text-before-edge">-México se encuentra en America</text><text x="0" y="40.85714285714286" font-family="Virgil, Segoe UI Emoji" font-size="16.342857142857145px" fill="#1e1e1e" text-anchor="start" style="white-space: pre;" direction="ltr" dominant-baseline="text-before-edge">-Mañana lloverá</text><text x="0" y="61.28571428571429" font-family="Virgil, Segoe UI Emoji" font-size="16.342857142857145px" fill="#1e1e1e" text-anchor="start" style="white-space: pre;" direction="ltr" dominant-baseline="text-before-edge">-Todos los carros tienen 3 ruedas</text><text x="0" y="81.71428571428572" font-family="Virgil, Segoe UI Emoji" font-size="16.342857142857145px" fill="#1e1e1e" text-anchor="start" style="white-space: pre;" direction="ltr" dominant-baseline="text-before-edge">-8 es nro par</text><text x="0" y="102.14285714285715" font-family="Virgil, Segoe UI Emoji" font-size="16.342857142857145px" fill="#1e1e1e" text-anchor="start" style="white-space: pre;" direction="ltr" dominant-baseline="text-before-edge">-la semana tiene 7 dias</text><text x="0" y="122.57142857142858" font-family="Virgil, Segoe UI Emoji" font-size="16.342857142857145px" fill="#1e1e1e" text-anchor="start" style="white-space: pre;" direction="ltr" dominant-baseline="text-before-edge"></text></g><g transform="translate(432 1235) rotate(0 96.73922729492188 56.5)"><text x="0" y="0" font-family="Virgil, Segoe UI Emoji" font-size="22.60000000000001px" fill="#1e1e1e" text-anchor="start" style="white-space: pre;" direction="ltr" dominant-baseline="text-before-edge">-como te llamas?</text><text x="0" y="28.25000000000001" font-family="Virgil, Segoe UI Emoji" font-size="22.60000000000001px" fill="#1e1e1e" text-anchor="start" style="white-space: pre;" direction="ltr" dominant-baseline="text-before-edge">-llama a tu tía</text><text x="0" y="56.50000000000002" font-family="Virgil, Segoe UI Emoji" font-size="22.60000000000001px" fill="#1e1e1e" text-anchor="start" style="white-space: pre;" direction="ltr" dominant-baseline="text-before-edge">-esperame!</text><text x="0" y="84.75000000000003" font-family="Virgil, Segoe UI Emoji" font-size="22.60000000000001px" fill="#1e1e1e" text-anchor="start" style="white-space: pre;" direction="ltr" dominant-baseline="text-before-edge">-El pantalón azul</text></g><g stroke-linecap="round"><g transform="translate(280 1352) rotate(0 94.5 69.5120425645996)"><path d="M-0.38 -0.9 C30.97 11.46, 177.01 56.26, 188.02 74.41 C199.03 92.57, 87.55 97.22, 65.7 108.03 C43.85 118.84, 58.51 133.91, 56.91 139.25 M1.63 1.23 C33.34 13.68, 179.61 57.3, 190.22 75.34 C200.83 93.38, 87.4 98.62, 65.3 109.48 C43.21 120.33, 59.41 135.83, 57.63 140.48" stroke="#1e1e1e" stroke-width="4" fill="none"></path></g><g transform="translate(280 1352) rotate(0 94.5 69.5120425645996)"><path d="M48.41 127.09 C49.93 129.74, 52.31 135.98, 57.63 140.48 M48.41 127.09 C51.52 132.08, 54.57 135.13, 57.63 140.48" stroke="#1e1e1e" stroke-width="4" fill="none"></path></g><g transform="translate(280 1352) rotate(0 94.5 69.5120425645996)"><path d="M59.18 124.29 C57.53 127.74, 56.72 134.8, 57.63 140.48 M59.18 124.29 C58.86 130.2, 58.45 134.15, 57.63 140.48" stroke="#1e1e1e" stroke-width="4" fill="none"></path></g></g><mask></mask><g transform="translate(40.004717791522125 1500) rotate(0 297.78533935546875 35)"><text x="297.78533935546875" y="0" font-family="Virgil, Segoe UI Emoji" font-size="18.666666666666675px" fill="#1e1e1e" text-anchor="middle" style="white-space: pre;" direction="ltr" dominant-baseline="text-before-edge">se separa el enunciado en parte y se simplifica al minimo hasta </text><text x="297.78533935546875" y="23.333333333333343" font-family="Virgil, Segoe UI Emoji" font-size="18.666666666666675px" fill="#1e1e1e" text-anchor="middle" style="white-space: pre;" direction="ltr" dominant-baseline="text-before-edge">conseguir su punto mas basico (se le dice atomico)</text><text x="297.78533935546875" y="46.666666666666686" font-family="Virgil, Segoe UI Emoji" font-size="18.666666666666675px" fill="#1e1e1e" text-anchor="middle" style="white-space: pre;" direction="ltr" dominant-baseline="text-before-edge">este se representa con letras a partir de la P en minus</text></g><g stroke-linecap="round" transform="translate(88 1589) rotate(0 260 60)"><path d="M250.93 1.1 C273.95 0.21, 299.7 0.82, 323.62 2.15 C347.55 3.47, 373.61 6.37, 394.51 9.05 C415.4 11.73, 432.96 14.08, 448.99 18.23 C465.02 22.38, 479.64 28.66, 490.68 33.95 C501.72 39.25, 510.66 44.77, 515.21 49.99 C519.75 55.21, 520.54 60.01, 517.93 65.27 C515.31 70.52, 508.94 75.9, 499.53 81.52 C490.11 87.14, 476.83 94.23, 461.46 98.99 C446.08 103.75, 427.21 107.4, 407.27 110.06 C387.33 112.73, 364.97 113.41, 341.8 114.97 C318.64 116.52, 292.69 118.87, 268.26 119.39 C243.82 119.9, 218.98 119.23, 195.19 118.08 C171.4 116.92, 146.15 115.11, 125.51 112.45 C104.88 109.8, 87.77 106.47, 71.39 102.14 C55.02 97.82, 38.36 91.51, 27.28 86.49 C16.21 81.48, 9.06 77.47, 4.96 72.08 C0.86 66.69, 0.1 60.14, 2.7 54.15 C5.3 48.16, 11.37 41.31, 20.55 36.12 C29.72 30.93, 42.45 27.54, 57.74 22.99 C73.03 18.44, 92.14 12.29, 112.28 8.81 C132.43 5.34, 146.85 3.23, 178.61 2.16 C210.37 1.08, 274.41 1.99, 302.84 2.35 C331.28 2.72, 349.91 3.33, 349.22 4.35 M460.25 22.41 C478.25 25.56, 491.07 32.32, 500.69 37.18 C510.31 42.05, 515.82 45.71, 517.97 51.58 C520.11 57.45, 517.41 66.72, 513.58 72.38 C509.76 78.04, 505.94 80.36, 495 85.55 C484.06 90.74, 465.51 98.87, 447.93 103.5 C430.35 108.13, 410.44 110.89, 389.54 113.32 C368.63 115.76, 345.43 116.81, 322.5 118.1 C299.58 119.38, 276.48 120.93, 251.98 121.05 C227.49 121.17, 198.87 120.73, 175.52 118.81 C152.16 116.88, 131.97 112.98, 111.87 109.52 C91.77 106.06, 70.13 102.96, 54.91 98.03 C39.69 93.11, 29.58 85.51, 20.52 79.98 C11.47 74.44, 3.33 70.16, 0.59 64.84 C-2.16 59.52, -0.71 53.19, 4.08 48.05 C8.87 42.91, 18.44 38.66, 29.31 34 C40.17 29.34, 53.12 24.46, 69.25 20.09 C85.38 15.73, 104.5 10.36, 126.1 7.81 C147.69 5.26, 175.18 6.1, 198.81 4.77 C222.45 3.43, 243.84 0.41, 267.91 -0.21 C291.98 -0.83, 320.09 -0.85, 343.23 1.04 C366.37 2.93, 387.22 7.42, 406.75 11.15 C426.28 14.88, 451.99 21.11, 460.42 23.42 C468.86 25.73, 459.83 25, 457.36 25.02" stroke="#1e1e1e" stroke-width="4" fill="none"></path></g><g transform="translate(131.87210083007812 1604.5) rotate(0 208.12789916992188 40)"><text x="208.12789916992188" y="0" font-family="Virgil, Segoe UI Emoji" font-size="16px" fill="#1e1e1e" text-anchor="middle" style="white-space: pre;" direction="ltr" dominant-baseline="text-before-edge">ejemplo: te voy a regalar golosinas y flores</text><text x="208.12789916992188" y="20" font-family="Virgil, Segoe UI Emoji" font-size="16px" fill="#1e1e1e" text-anchor="middle" style="white-space: pre;" direction="ltr" dominant-baseline="text-before-edge">P: te voy a regalar golosinas</text><text x="208.12789916992188" y="40" font-family="Virgil, Segoe UI Emoji" font-size="16px" fill="#1e1e1e" text-anchor="middle" style="white-space: pre;" direction="ltr" dominant-baseline="text-before-edge">Q: te voy a regalar flores</text><text x="208.12789916992188" y="60" font-family="Virgil, Segoe UI Emoji" font-size="16px" fill="#1e1e1e" text-anchor="middle" style="white-space: pre;" direction="ltr" dominant-baseline="text-before-edge">su nivel atomico es p o q y "y" es su conector lógico</text></g><g stroke-linecap="round" transform="translate(400 1662) rotate(0 77.5 14.5)"><path d="M155 14.5 C155 15.13, 154.78 15.77, 154.34 16.39 C153.9 17.02, 153.23 17.64, 152.36 18.25 C151.49 18.86, 150.39 19.47, 149.1 20.05 C147.81 20.63, 146.3 21.2, 144.62 21.75 C142.93 22.3, 141.04 22.83, 138.98 23.33 C136.93 23.83, 134.69 24.31, 132.3 24.75 C129.92 25.2, 127.35 25.62, 124.68 26 C122 26.39, 119.17 26.74, 116.25 27.06 C113.33 27.37, 110.27 27.65, 107.16 27.9 C104.04 28.14, 100.82 28.34, 97.56 28.51 C94.3 28.67, 90.96 28.79, 87.62 28.88 C84.27 28.96, 80.87 29, 77.5 29 C74.13 29, 70.73 28.96, 67.38 28.88 C64.04 28.79, 60.7 28.67, 57.44 28.51 C54.18 28.34, 50.96 28.14, 47.84 27.9 C44.73 27.65, 41.67 27.37, 38.75 27.06 C35.83 26.74, 33 26.39, 30.32 26 C27.65 25.62, 25.08 25.2, 22.7 24.75 C20.31 24.31, 18.07 23.83, 16.02 23.33 C13.96 22.83, 12.07 22.3, 10.38 21.75 C8.7 21.2, 7.19 20.63, 5.9 20.05 C4.61 19.47, 3.51 18.86, 2.64 18.25 C1.77 17.64, 1.1 17.02, 0.66 16.39 C0.22 15.77, 0 15.13, 0 14.5 C0 13.87, 0.22 13.23, 0.66 12.61 C1.1 11.98, 1.77 11.36, 2.64 10.75 C3.51 10.14, 4.61 9.53, 5.9 8.95 C7.19 8.37, 8.7 7.8, 10.38 7.25 C12.07 6.7, 13.96 6.17, 16.02 5.67 C18.07 5.17, 20.31 4.69, 22.7 4.25 C25.08 3.8, 27.65 3.38, 30.32 3 C33 2.61, 35.83 2.26, 38.75 1.94 C41.67 1.63, 44.73 1.35, 47.84 1.1 C50.96 0.86, 54.18 0.66, 57.44 0.49 C60.7 0.33, 64.04 0.21, 67.38 0.12 C70.73 0.04, 74.13 0, 77.5 0 C80.87 0, 84.27 0.04, 87.62 0.12 C90.96 0.21, 94.3 0.33, 97.56 0.49 C100.82 0.66, 104.04 0.86, 107.16 1.1 C110.27 1.35, 113.33 1.63, 116.25 1.94 C119.17 2.26, 122 2.61, 124.68 3 C127.35 3.38, 129.92 3.8, 132.3 4.25 C134.69 4.69, 136.93 5.17, 138.98 5.67 C141.04 6.17, 142.93 6.7, 144.62 7.25 C146.3 7.8, 147.81 8.37, 149.1 8.95 C150.39 9.53, 151.49 10.14, 152.36 10.75 C153.23 11.36, 153.9 11.98, 154.34 12.61 C154.78 13.23, 154.89 14.18, 155 14.5 C155.11 14.82, 155.11 14.18, 155 14.5" stroke="#1e1e1e" stroke-width="1" fill="none"></path></g><g stroke-linecap="round"><g transform="translate(550 1676) rotate(0 -98.51716388444515 48.500000000000114)"><path d="M1.96 0.11 C9.26 7.24, 82.33 31.99, 44.67 42.77 C7.01 53.55, -176.39 55.75, -223.98 64.8 C-271.57 73.85, -237.77 92.1, -240.89 97.08 M-0.42 -2.3 C6.39 4.04, 79.72 28.39, 42.25 38.72 C4.78 49.05, -178.24 49.54, -225.23 59.7 C-272.22 69.87, -237.57 93.95, -239.69 99.72" stroke="#1e1e1e" stroke-width="1" fill="none"></path></g><g transform="translate(550 1676) rotate(0 -98.51716388444515 48.500000000000114)"><path d="M-253.3 86.96 C-247.66 91.92, -243.77 96.16, -239.64 99.26 M-253.39 87.25 C-251.09 89.83, -246.61 92.59, -238.97 100.33" stroke="#1e1e1e" stroke-width="1" fill="none"></path></g><g transform="translate(550 1676) rotate(0 -98.51716388444515 48.500000000000114)"><path d="M-242.04 81.1 C-240.14 88.08, -239.98 94.27, -239.64 99.26 M-242.12 81.38 C-242.26 85.25, -240.22 89.29, -238.97 100.33" stroke="#1e1e1e" stroke-width="1" fill="none"></path></g></g><mask></mask><g transform="translate(155.75405883789062 1776.5) rotate(0 159.24594116210938 22.5)"><text x="159.24594116210938" y="0" font-family="Virgil, Segoe UI Emoji" font-size="36px" fill="#1e1e1e" text-anchor="middle" style="white-space: pre;" direction="ltr" dominant-baseline="text-before-edge">conectores lógicos</text></g><g stroke-linecap="round"><g transform="translate(311 1834) rotate(0 -107 73.50000000000011)"><path d="M0 0 C-35.67 2, -179.02 -12.5, -214 12 C-248.98 36.5, -210.55 124.5, -209.86 147 M0 0 C-35.67 2, -179.02 -12.5, -214 12 C-248.98 36.5, -210.55 124.5, -209.86 147" stroke="#1e1e1e" stroke-width="2" fill="none"></path></g><g transform="translate(311 1834) rotate(0 -107 73.50000000000011)"><path d="M-223.39 125.98 C-219.16 132.55, -214.93 139.12, -209.86 147 M-223.39 125.98 C-219.99 131.26, -216.59 136.55, -209.86 147" stroke="#1e1e1e" stroke-width="2" fill="none"></path></g><g transform="translate(311 1834) rotate(0 -107 73.50000000000011)"><path d="M-206.71 122.2 C-207.7 129.95, -208.68 137.7, -209.86 147 M-206.71 122.2 C-207.51 128.43, -208.3 134.67, -209.86 147" stroke="#1e1e1e" stroke-width="2" fill="none"></path></g></g><mask></mask><g transform="translate(51.07231521606445 1982) rotate(0 51.529701232910156 18.396421264973924)"><text x="51.529701232910156" y="0" font-family="Virgil, Segoe UI Emoji" font-size="14.717137011979137px" fill="#1e1e1e" text-anchor="middle" style="white-space: pre;" direction="ltr" dominant-baseline="text-before-edge">NO</text><text x="51.529701232910156" y="18.39642126497392" font-family="Virgil, Segoe UI Emoji" font-size="14.717137011979137px" fill="#1e1e1e" text-anchor="middle" style="white-space: pre;" direction="ltr" dominant-baseline="text-before-edge"> ¬ NEGACION</text></g><g transform="translate(29.957997385660747 2366) rotate(0 59.99102020263672 19.77043347293261)"><text x="59.99102020263672" y="0" font-family="Virgil, Segoe UI Emoji" font-size="15.81634677834605px" fill="#1e1e1e" text-anchor="middle" style="white-space: pre;" direction="ltr" dominant-baseline="text-before-edge">Y </text><text x="59.99102020263672" y="19.770433472932563" font-family="Virgil, Segoe UI Emoji" font-size="15.81634677834605px" fill="#1e1e1e" text-anchor="middle" style="white-space: pre;" direction="ltr" dominant-baseline="text-before-edge">^ CONJUNCIÓN</text></g><g transform="translate(154.46606241861969 2566) rotate(0 70.68475341796875 24)"><text x="70.68475341796875" y="0" font-family="Virgil, Segoe UI Emoji" font-size="19.199999999999964px" fill="#1e1e1e" text-anchor="middle" style="white-space: pre;" direction="ltr" dominant-baseline="text-before-edge">O</text><text x="70.68475341796875" y="23.999999999999954" font-family="Virgil, Segoe UI Emoji" font-size="19.199999999999964px" fill="#1e1e1e" text-anchor="middle" style="white-space: pre;" direction="ltr" dominant-baseline="text-before-edge">V DISYUNCIÓN</text></g><g transform="translate(134.11809098985464 3047) rotate(0 63.262542724609375 37)"><text x="63.262542724609375" y="0" font-family="Virgil, Segoe UI Emoji" font-size="14.799999999999997px" fill="#1e1e1e" text-anchor="middle" style="white-space: pre;" direction="ltr" dominant-baseline="text-before-edge">ENTONCES</text><text x="63.262542724609375" y="18.499999999999996" font-family="Virgil, Segoe UI Emoji" font-size="14.799999999999997px" fill="#1e1e1e" text-anchor="middle" style="white-space: pre;" direction="ltr" dominant-baseline="text-before-edge">-&gt; CONDICIONAL</text><text x="63.262542724609375" y="36.99999999999999" font-family="Virgil, Segoe UI Emoji" font-size="14.799999999999997px" fill="#1e1e1e" text-anchor="middle" style="white-space: pre;" direction="ltr" dominant-baseline="text-before-edge"></text><text x="63.262542724609375" y="55.499999999999986" font-family="Virgil, Segoe UI Emoji" font-size="14.799999999999997px" fill="#1e1e1e" text-anchor="middle" style="white-space: pre;" direction="ltr" dominant-baseline="text-before-edge"></text></g><g transform="translate(373.3321134779185 3267) rotate(0 83.40792083740234 20)"><text x="83.40792083740234" y="0" font-family="Virgil, Segoe UI Emoji" font-size="15.999999999999966px" fill="#1e1e1e" text-anchor="middle" style="white-space: pre;" direction="ltr" dominant-baseline="text-before-edge">SI Y SOLO SI</text><text x="83.40792083740234" y="19.999999999999957" font-family="Virgil, Segoe UI Emoji" font-size="15.999999999999966px" fill="#1e1e1e" text-anchor="middle" style="white-space: pre;" direction="ltr" dominant-baseline="text-before-edge">&lt;-&gt; BICONDICIONAL</text></g><g transform="translate(38 2036) rotate(0 109.84449768066406 8.670407006159053)"><text x="0" y="0" font-family="Virgil, Segoe UI Emoji" font-size="13.872651209854466px" fill="#1e1e1e" text-anchor="start" style="white-space: pre;" direction="ltr" dominant-baseline="text-before-edge">p: ire al cine ¬ no ire al cine ¬p</text></g><g stroke-linecap="round"><g transform="translate(300 1836) rotate(0 -45.82171092689492 259)"><path d="M0 0 C-21.33 23, -146.33 99, -128 138 C-109.67 177, 117 180.83, 110 234 C103 287.17, -118.06 409.67, -170 457 C-221.94 504.33, -196.37 507.83, -201.64 518 M0 0 C-21.33 23, -146.33 99, -128 138 C-109.67 177, 117 180.83, 110 234 C103 287.17, -118.06 409.67, -170 457 C-221.94 504.33, -196.37 507.83, -201.64 518" stroke="#1e1e1e" stroke-width="2" fill="none"></path></g><g transform="translate(300 1836) rotate(0 -45.82171092689492 259)"><path d="M-211.93 495.22 C-208.93 501.86, -205.93 508.51, -201.64 518 M-211.93 495.22 C-209.04 501.62, -206.15 508.02, -201.64 518" stroke="#1e1e1e" stroke-width="2" fill="none"></path></g><g transform="translate(300 1836) rotate(0 -45.82171092689492 259)"><path d="M-194.88 493.93 C-196.85 500.95, -198.83 507.98, -201.64 518 M-194.88 493.93 C-196.78 500.69, -198.68 507.46, -201.64 518" stroke="#1e1e1e" stroke-width="2" fill="none"></path></g></g><mask></mask><g stroke-linecap="round"><g transform="translate(305 1832) rotate(0 32.069593009211076 361)"><path d="M0 0 C20 43.67, 110 160.83, 120 262 C130 363.17, 89.31 530.33, 60 607 C30.69 683.67, -36.55 702.83, -55.86 722 M0 0 C20 43.67, 110 160.83, 120 262 C130 363.17, 89.31 530.33, 60 607 C30.69 683.67, -36.55 702.83, -55.86 722" stroke="#1e1e1e" stroke-width="2" fill="none"></path></g><g transform="translate(305 1832) rotate(0 32.069593009211076 361)"><path d="M-41.12 701.81 C-44.8 706.84, -48.47 711.88, -55.86 722 M-41.12 701.81 C-45.2 707.39, -49.27 712.98, -55.86 722" stroke="#1e1e1e" stroke-width="2" fill="none"></path></g><g transform="translate(305 1832) rotate(0 32.069593009211076 361)"><path d="M-31.59 716 C-37.64 717.5, -43.69 718.99, -55.86 722 M-31.59 716 C-38.3 717.66, -45.01 719.32, -55.86 722" stroke="#1e1e1e" stroke-width="2" fill="none"></path></g></g><mask></mask><g stroke-linecap="round"><g transform="translate(303 1834) rotate(0 45.731358933231945 603.5)"><path d="M0 0 C18.67 7.17, 76.5 0.5, 112 43 C147.5 85.5, 213.33 166.67, 213 255 C212.67 343.33, 113.33 461.17, 110 573 C106.67 684.83, 231.59 820.33, 193 926 C154.41 1031.67, -69.11 1160.17, -121.54 1207 M0 0 C18.67 7.17, 76.5 0.5, 112 43 C147.5 85.5, 213.33 166.67, 213 255 C212.67 343.33, 113.33 461.17, 110 573 C106.67 684.83, 231.59 820.33, 193 926 C154.41 1031.67, -69.11 1160.17, -121.54 1207" stroke="#1e1e1e" stroke-width="2" fill="none"></path></g><g transform="translate(303 1834) rotate(0 45.731358933231945 603.5)"><path d="M-107.64 1186.22 C-111.88 1192.56, -116.13 1198.91, -121.54 1207 M-107.64 1186.22 C-112.76 1193.88, -117.88 1201.54, -121.54 1207" stroke="#1e1e1e" stroke-width="2" fill="none"></path></g><g transform="translate(303 1834) rotate(0 45.731358933231945 603.5)"><path d="M-97.53 1200.01 C-104.86 1202.15, -112.19 1204.28, -121.54 1207 M-97.53 1200.01 C-106.38 1202.59, -115.23 1205.16, -121.54 1207" stroke="#1e1e1e" stroke-width="2" fill="none"></path></g></g><mask></mask><g stroke-linecap="round"><g transform="translate(307 1833) rotate(0 155.5 707.5000000000005)"><path d="M0 0 C51.83 -1.67, 269 -41.67, 311 -10 C353 21.67, 265.83 91.17, 252 190 C238.17 288.83, 219.5 432, 228 583 C236.5 734, 311.39 955.67, 303 1096 C294.61 1236.33, 198.56 1370.17, 177.67 1425 M0 0 C51.83 -1.67, 269 -41.67, 311 -10 C353 21.67, 265.83 91.17, 252 190 C238.17 288.83, 219.5 432, 228 583 C236.5 734, 311.39 955.67, 303 1096 C294.61 1236.33, 198.56 1370.17, 177.67 1425" stroke="#1e1e1e" stroke-width="2" fill="none"></path></g><g transform="translate(307 1833) rotate(0 155.5 707.5000000000005)"><path d="M180.63 1400.18 C179.64 1408.45, 178.66 1416.73, 177.67 1425 M180.63 1400.18 C179.45 1410.1, 178.26 1420.02, 177.67 1425" stroke="#1e1e1e" stroke-width="2" fill="none"></path></g><g transform="translate(307 1833) rotate(0 155.5 707.5000000000005)"><path d="M195.89 1407.88 C189.82 1413.59, 183.74 1419.3, 177.67 1425 M195.89 1407.88 C188.61 1414.73, 181.32 1421.57, 177.67 1425" stroke="#1e1e1e" stroke-width="2" fill="none"></path></g></g><mask></mask><g stroke-linecap="round" transform="translate(18 2027) rotate(0 154.5 85)"><path d="M32 0 C87.32 -0.92, 136.83 -3.68, 277 0 M32 0 C105.3 -0.05, 181.14 0.62, 277 0 M277 0 C294.7 0.79, 307.03 8.07, 309 32 M277 0 C302.74 -1.46, 311.34 10.46, 309 32 M309 32 C308.43 65.94, 306.43 100.05, 309 138 M309 32 C310.11 55.16, 310.41 75.41, 309 138 M309 138 C312.3 159.42, 301.68 167.68, 277 170 M309 138 C311.1 162.47, 296.07 172.92, 277 170 M277 170 C191.97 175.05, 103.93 171.43, 32 170 M277 170 C227.05 171.17, 177.51 170.73, 32 170 M32 170 C8.08 170.02, 0.67 156.53, 0 138 M32 170 C11.63 168.63, 2.74 159.7, 0 138 M0 138 C3.6 112.24, -2.73 81.38, 0 32 M0 138 C0.69 101.35, 0.79 65.86, 0 32 M0 32 C-3.44 11.14, 9.42 1.74, 32 0 M0 32 C4.47 12.17, 14.96 -1.56, 32 0" stroke="#1e1e1e" stroke-width="2" fill="none"></path></g><g transform="translate(49 2075) rotate(0 119.67993927001953 10)"><text x="0" y="0" font-family="Virgil, Segoe UI Emoji" font-size="16px" fill="#1e1e1e" text-anchor="start" style="white-space: pre;" direction="ltr" dominant-baseline="text-before-edge">es falso que no está lloviendo</text></g><g stroke-linecap="round"><g transform="translate(45 2095) rotate(0 54 3)"><path d="M0.26 -0.31 C8.38 0.64, 30.74 6.3, 48.68 6.03 C66.62 5.75, 98.2 -0.78, 107.9 -1.98 M-1.06 -1.51 C6.87 -0.48, 29.54 7, 47.56 7.05 C65.58 7.11, 97.25 0.02, 107.09 -1.18" stroke="#1e1e1e" stroke-width="2" fill="none"></path></g></g><mask></mask><g transform="translate(81 2093.5) rotate(0 9.5771484375 17.5)"><text x="0" y="0" font-family="Virgil, Segoe UI Emoji" font-size="28px" fill="#1e1e1e" text-anchor="start" style="white-space: pre;" direction="ltr" dominant-baseline="text-before-edge">¬</text></g><g stroke-linecap="round"><g transform="translate(157 2093) rotate(0 10 2)"><path d="M0.32 0.34 C1.87 1.25, 5.51 6.27, 8.87 5.87 C12.23 5.46, 18.57 -0.74, 20.47 -2.08 M-0.18 0.03 C1.33 1, 4.94 6.76, 8.37 6.5 C11.79 6.24, 18.34 -0.14, 20.37 -1.52" stroke="#1e1e1e" stroke-width="2" fill="none"></path></g></g><mask></mask><g transform="translate(160 2090.5) rotate(0 9.5771484375 17.5)"><text x="0" y="0" font-family="Virgil, Segoe UI Emoji" font-size="28px" fill="#1e1e1e" text-anchor="start" style="white-space: pre;" direction="ltr" dominant-baseline="text-before-edge">¬</text></g><g stroke-linecap="round"><g transform="translate(182 2094) rotate(0 55.5 4)"><path d="M-0.96 0.95 C7.13 2.45, 31.1 8.41, 49.68 8.03 C68.26 7.66, 100.26 0.17, 110.51 -1.29 M0.74 0.4 C8.62 2.1, 30.96 9.15, 49.09 9.06 C67.21 8.98, 99.08 1.3, 109.48 -0.12" stroke="#1e1e1e" stroke-width="2" fill="none"></path></g></g><mask></mask><g transform="translate(234 2101.5) rotate(0 3.9439926147460938 10)"><text x="0" y="0" font-family="Virgil, Segoe UI Emoji" font-size="16px" fill="#1e1e1e" text-anchor="start" style="white-space: pre;" direction="ltr" dominant-baseline="text-before-edge">p</text></g><g transform="translate(40 2124) rotate(0 26.056289672851562 35)"><text x="0" y="0" font-family="Virgil, Segoe UI Emoji" font-size="28px" fill="#e03131" text-anchor="start" style="white-space: pre;" direction="ltr" dominant-baseline="text-before-edge">¬¬p</text><text x="0" y="35" font-family="Virgil, Segoe UI Emoji" font-size="28px" fill="#e03131" text-anchor="start" style="white-space: pre;" direction="ltr" dominant-baseline="text-before-edge"></text></g><g stroke-linecap="round"><g transform="translate(61.55194395711908 2117) rotate(0 -7.275971978559539 5.5)"><path d="M0 0 C-2.09 -0.5, -10.13 -5.33, -12.55 -3 C-14.98 -0.67, -14.22 11.17, -14.55 14 M0 0 C-2.09 -0.5, -10.13 -5.33, -12.55 -3 C-14.98 -0.67, -14.22 11.17, -14.55 14" stroke="#1e1e1e" stroke-width="1" fill="none"></path></g><g transform="translate(61.55194395711908 2117) rotate(0 -7.275971978559539 5.5)"><path d="M-17.26 5.88 C-16.65 7.71, -16.04 9.53, -14.55 14 M-17.26 5.88 C-16.68 7.61, -16.11 9.35, -14.55 14" stroke="#1e1e1e" stroke-width="1" fill="none"></path></g><g transform="translate(61.55194395711908 2117) rotate(0 -7.275971978559539 5.5)"><path d="M-11.41 6.04 C-12.12 7.83, -12.82 9.62, -14.55 14 M-11.41 6.04 C-12.08 7.74, -12.75 9.44, -14.55 14" stroke="#1e1e1e" stroke-width="1" fill="none"></path></g></g><mask></mask><g stroke-linecap="round"><g transform="translate(154 2111) rotate(0 -41.5 12.5)"><path d="M0 0 C-11.67 1.83, -56.17 6.83, -70 11 C-83.83 15.17, -80.83 22.67, -83 25 M0 0 C-11.67 1.83, -56.17 6.83, -70 11 C-83.83 15.17, -80.83 22.67, -83 25" stroke="#1e1e1e" stroke-width="1" fill="none"></path></g><g transform="translate(154 2111) rotate(0 -41.5 12.5)"><path d="M-83.1 15.45 C-83.07 18.65, -83.03 21.85, -83 25 M-83.1 15.45 C-83.06 19.25, -83.02 23.05, -83 25" stroke="#1e1e1e" stroke-width="1" fill="none"></path></g><g transform="translate(154 2111) rotate(0 -41.5 12.5)"><path d="M-76.94 17.62 C-78.97 20.09, -81 22.57, -83 25 M-76.94 17.62 C-79.35 20.56, -81.76 23.49, -83 25" stroke="#1e1e1e" stroke-width="1" fill="none"></path></g></g><mask></mask><g stroke-linecap="round"><g transform="translate(224 2118) rotate(0 -64 10.5)"><path d="M0 0 C-19.33 2, -94.67 8.5, -116 12 C-137.33 15.5, -126 19.5, -128 21 M0 0 C-19.33 2, -94.67 8.5, -116 12 C-137.33 15.5, -126 19.5, -128 21" stroke="#1e1e1e" stroke-width="1" fill="none"></path></g><g transform="translate(224 2118) rotate(0 -64 10.5)"><path d="M-132.41 14.93 C-131.19 16.61, -129.97 18.29, -128 21 M-132.41 14.93 C-130.8 17.14, -129.2 19.35, -128 21" stroke="#1e1e1e" stroke-width="1" fill="none"></path></g><g transform="translate(224 2118) rotate(0 -64 10.5)"><path d="M-127.48 13.52 C-127.62 15.59, -127.77 17.66, -128 21 M-127.48 13.52 C-127.67 16.24, -127.86 18.97, -128 21" stroke="#1e1e1e" stroke-width="1" fill="none"></path></g></g><mask></mask><g transform="translate(109.66549595424158 2137.096578293721) rotate(0 100.8830337524414 22.451710853139616)"><text x="0" y="0" font-family="Virgil, Segoe UI Emoji" font-size="11.9742457883411px" fill="#1e1e1e" text-anchor="start" style="white-space: pre;" direction="ltr" dominant-baseline="text-before-edge">la doble negacion se anula y</text><text x="0" y="14.967807235426376" font-family="Virgil, Segoe UI Emoji" font-size="11.9742457883411px" fill="#1e1e1e" text-anchor="start" style="white-space: pre;" direction="ltr" dominant-baseline="text-before-edge">queda la proposicion en si en </text><text x="0" y="29.93561447085275" font-family="Virgil, Segoe UI Emoji" font-size="11.9742457883411px" fill="#1e1e1e" text-anchor="start" style="white-space: pre;" direction="ltr" dominant-baseline="text-before-edge">este caso quedaria está lloviendo</text></g><g stroke-linecap="round" transform="translate(10 2357) rotate(0 139 87)"><path d="M32 0 C77.96 1.35, 127.43 2, 246 0 M32 0 C102.07 -2.32, 171.44 -2.45, 246 0 M246 0 C265.8 0.79, 279.97 12.22, 278 32 M246 0 C263.89 -0.36, 278.71 11.17, 278 32 M278 32 C273.95 78.29, 275.55 117.75, 278 142 M278 32 C276.89 68.73, 278.28 102.46, 278 142 M278 142 C274.49 165.73, 266.57 174.59, 246 174 M278 142 C276.55 166.15, 263.25 174.56, 246 174 M246 174 C162.97 173.08, 85.13 171.05, 32 174 M246 174 C164.75 173.57, 84.41 174.12, 32 174 M32 174 C8.56 175.53, -3.19 166.98, 0 142 M32 174 C7.62 172.44, -3.22 163.86, 0 142 M0 142 C3.83 97.35, -0.99 59.59, 0 32 M0 142 C-0.3 109.36, 0.36 75.55, 0 32 M0 32 C3.84 12.25, 11.56 3.27, 32 0 M0 32 C3.08 7.62, 14.16 1.53, 32 0" stroke="#1e1e1e" stroke-width="2" fill="none"></path></g><g transform="translate(36 2406) rotate(0 78.03833770751953 27.714581608220897)"><text x="0" y="0" font-family="Virgil, Segoe UI Emoji" font-size="14.781110191051157px" fill="#1e1e1e" text-anchor="start" style="white-space: pre;" direction="ltr" dominant-baseline="text-before-edge">p: iré al cine.</text><text x="0" y="18.476387738813948" font-family="Virgil, Segoe UI Emoji" font-size="14.781110191051157px" fill="#1e1e1e" text-anchor="start" style="white-space: pre;" direction="ltr" dominant-baseline="text-before-edge">q: ire a jugar fútbol </text><text x="0" y="36.952775477627895" font-family="Virgil, Segoe UI Emoji" font-size="14.781110191051157px" fill="#1e1e1e" text-anchor="start" style="white-space: pre;" direction="ltr" dominant-baseline="text-before-edge"></text></g><g stroke-linecap="round"><g transform="translate(194 2430) rotate(0 24 12.38016478166628)"><path d="M0 0 C8 0, 46.23 -4.13, 48 0 C49.77 4.13, 16.87 20.63, 10.65 24.76 M0 0 C8 0, 46.23 -4.13, 48 0 C49.77 4.13, 16.87 20.63, 10.65 24.76" stroke="#1e1e1e" stroke-width="2" fill="none"></path></g><g transform="translate(194 2430) rotate(0 24 12.38016478166628)"><path d="M25.11 7.64 C19.72 14.02, 14.33 20.4, 10.65 24.76 M25.11 7.64 C21.78 11.59, 18.44 15.53, 10.65 24.76" stroke="#1e1e1e" stroke-width="2" fill="none"></path></g><g transform="translate(194 2430) rotate(0 24 12.38016478166628)"><path d="M32.73 20.94 C24.5 22.36, 16.27 23.79, 10.65 24.76 M32.73 20.94 C27.64 21.82, 22.55 22.7, 10.65 24.76" stroke="#1e1e1e" stroke-width="2" fill="none"></path></g></g><mask></mask><g transform="translate(40 2476) rotate(0 101.03107452392578 9.405468000988321)"><text x="0" y="0" font-family="Virgil, Segoe UI Emoji" font-size="15.048748801581484px" fill="#1e1e1e" text-anchor="start" style="white-space: pre;" direction="ltr" dominant-baseline="text-before-edge">ire al cine y a jugar futbol</text></g><g stroke-linecap="round"><g transform="translate(31 2414.3480193556934) rotate(0 6 28.325990322153302)"><path d="M0 0 C-1.5 7.44, -12.5 35.21, -9 44.65 C-5.5 54.09, 16 54.65, 21 56.65 M0 0 C-1.5 7.44, -12.5 35.21, -9 44.65 C-5.5 54.09, 16 54.65, 21 56.65" stroke="#1e1e1e" stroke-width="2" fill="none"></path></g><g transform="translate(31 2414.3480193556934) rotate(0 6 28.325990322153302)"><path d="M5.01 58.93 C10.74 58.11, 16.47 57.3, 21 56.65 M5.01 58.93 C11.22 58.04, 17.44 57.16, 21 56.65" stroke="#1e1e1e" stroke-width="2" fill="none"></path></g><g transform="translate(31 2414.3480193556934) rotate(0 6 28.325990322153302)"><path d="M7.28 48.12 C12.2 51.18, 17.11 54.23, 21 56.65 M7.28 48.12 C12.62 51.44, 17.95 54.75, 21 56.65" stroke="#1e1e1e" stroke-width="2" fill="none"></path></g></g><mask></mask><g stroke-linecap="round"><g transform="translate(40 2494) rotate(0 38 4)"><path d="M0 0 C6.5 1.67, 26.33 10.33, 39 10 C51.67 9.67, 69.83 0, 76 -2 M0 0 C6.5 1.67, 26.33 10.33, 39 10 C51.67 9.67, 69.83 0, 76 -2" stroke="#1e1e1e" stroke-width="2" fill="none"></path></g></g><mask></mask><g stroke-linecap="round"><g transform="translate(120 2495) rotate(0 7 2.5)"><path d="M0 0 C1.67 1.5, 7.67 9.67, 10 9 C12.33 8.33, 13.33 -1.83, 14 -4 M0 0 C1.67 1.5, 7.67 9.67, 10 9 C12.33 8.33, 13.33 -1.83, 14 -4" stroke="#1e1e1e" stroke-width="2" fill="none"></path></g></g><mask></mask><g stroke-linecap="round"><g transform="translate(152 2491) rotate(0 48 4)"><path d="M0 0 C7.83 1.83, 31 11.5, 47 11 C63 10.5, 87.83 -0.67, 96 -3 M0 0 C7.83 1.83, 31 11.5, 47 11 C63 10.5, 87.83 -0.67, 96 -3" stroke="#1e1e1e" stroke-width="2" fill="none"></path></g></g><mask></mask><g transform="translate(71 2495) rotate(0 5.901206970214844 14.964500396835092)"><text x="0" y="0" font-family="Virgil, Segoe UI Emoji" font-size="23.943200634936087px" fill="#1e1e1e" text-anchor="start" style="white-space: pre;" direction="ltr" dominant-baseline="text-before-edge">p</text></g><g transform="translate(124 2505) rotate(0 7.615997314453125 17.5)"><text x="0" y="0" font-family="Virgil, Segoe UI Emoji" font-size="28px" fill="#1e1e1e" text-anchor="start" style="white-space: pre;" direction="ltr" dominant-baseline="text-before-edge">^</text></g><g transform="translate(188 2491) rotate(0 7.6439971923828125 17.5)"><text x="0" y="0" font-family="Virgil, Segoe UI Emoji" font-size="28px" fill="#1e1e1e" text-anchor="start" style="white-space: pre;" direction="ltr" dominant-baseline="text-before-edge">q</text></g><g stroke-linecap="round" transform="translate(21.000000000000227 2564) rotate(0 214.4999999999999 81.5)"><path d="M32 0 C178.29 -0.87, 322.83 -3.15, 397 0 M32 0 C176.13 -2.59, 322.14 -1.1, 397 0 M397 0 C415.62 -0.73, 426.76 8.46, 429 32 M397 0 C420.66 3.42, 424.51 12.08, 429 32 M429 32 C428.53 69.58, 426.33 101.47, 429 131 M429 32 C428.21 61.62, 427.48 89.19, 429 131 M429 131 C428.36 152.79, 416.11 162.77, 397 163 M429 131 C433.43 156.08, 422.84 158.82, 397 163 M397 163 C258.41 162.93, 121.51 163.87, 32 163 M397 163 C298.86 165.49, 201.58 166.88, 32 163 M32 163 C11.9 166.27, -3.38 156.23, 0 131 M32 163 C12.37 166.14, -3.96 152.43, 0 131 M0 131 C-2.04 100.42, -0.91 72.6, 0 32 M0 131 C-0.46 98.75, 2.41 66.3, 0 32 M0 32 C-2.82 11.23, 9.38 1.69, 32 0 M0 32 C-3.65 13.18, 7.01 -3.32, 32 0" stroke="#1e1e1e" stroke-width="2" fill="none"></path></g><g transform="translate(38 2610) rotate(0 93.18672180175781 23)"><text x="0" y="0" font-family="Virgil, Segoe UI Emoji" font-size="18.399999999999956px" fill="#1e1e1e" text-anchor="start" style="white-space: pre;" direction="ltr" dominant-baseline="text-before-edge">p: iré al cine</text><text x="0" y="22.999999999999943" font-family="Virgil, Segoe UI Emoji" font-size="18.399999999999956px" fill="#1e1e1e" text-anchor="start" style="white-space: pre;" direction="ltr" dominant-baseline="text-before-edge">q: iré a jugar fútbol</text></g><g transform="translate(42 2660) rotate(0 189.27993774414062 17.5)"><text x="0" y="0" font-family="Virgil, Segoe UI Emoji" font-size="28px" fill="#1e1e1e" text-anchor="start" style="white-space: pre;" direction="ltr" dominant-baseline="text-before-edge">ire al cine o a jugar futbol</text></g><g stroke-linecap="round"><g transform="translate(31 2626.583582998347) rotate(0 -2 27.20820850082646)"><path d="M0 0 C-1.17 5.4, -7.5 23.35, -7 32.42 C-6.5 41.49, 1.33 50.75, 3 54.42 M0 0 C-1.17 5.4, -7.5 23.35, -7 32.42 C-6.5 41.49, 1.33 50.75, 3 54.42" stroke="#1e1e1e" stroke-width="2" fill="none"></path></g><g transform="translate(31 2626.583582998347) rotate(0 -2 27.20820850082646)"><path d="M-6.39 46.82 C-3.09 49.49, 0.21 52.16, 3 54.42 M-6.39 46.82 C-4.39 48.44, -2.38 50.07, 3 54.42" stroke="#1e1e1e" stroke-width="2" fill="none"></path></g><g transform="translate(31 2626.583582998347) rotate(0 -2 27.20820850082646)"><path d="M0.69 42.56 C1.5 46.73, 2.31 50.89, 3 54.42 M0.69 42.56 C1.18 45.09, 1.68 47.63, 3 54.42" stroke="#1e1e1e" stroke-width="2" fill="none"></path></g></g><mask></mask><g stroke-linecap="round"><g transform="translate(231 2641) rotate(0 45.5 2)"><path d="M0 0 C15.17 -1.17, 77.67 -8.83, 91 -7 C104.33 -5.17, 81.83 8, 80 11 M0 0 C15.17 -1.17, 77.67 -8.83, 91 -7 C104.33 -5.17, 81.83 8, 80 11" stroke="#1e1e1e" stroke-width="2" fill="none"></path></g><g transform="translate(231 2641) rotate(0 45.5 2)"><path d="M85.2 1.82 C83.48 4.87, 81.75 7.91, 80 11 M85.2 1.82 C83.95 4.03, 82.7 6.23, 80 11" stroke="#1e1e1e" stroke-width="2" fill="none"></path></g><g transform="translate(231 2641) rotate(0 45.5 2)"><path d="M89.88 7.31 C86.6 8.54, 83.33 9.76, 80 11 M89.88 7.31 C87.51 8.2, 85.14 9.08, 80 11" stroke="#1e1e1e" stroke-width="2" fill="none"></path></g></g><mask></mask><g stroke-linecap="round"><g transform="translate(43 2696) rotate(0 69 1.5)"><path d="M0 0 C11.83 1.17, 48 7.67, 71 7 C94 6.33, 126.83 -2.17, 138 -4 M0 0 C11.83 1.17, 48 7.67, 71 7 C94 6.33, 126.83 -2.17, 138 -4" stroke="#1e1e1e" stroke-width="2" fill="none"></path></g></g><mask></mask><g stroke-linecap="round"><g transform="translate(211 2689) rotate(0 -11.5 5.5)"><path d="M0 0 C-1.83 2, -7.17 12.17, -11 12 C-14.83 11.83, -21 1.17, -23 -1 M0 0 C-1.83 2, -7.17 12.17, -11 12 C-14.83 11.83, -21 1.17, -23 -1" stroke="#1e1e1e" stroke-width="2" fill="none"></path></g></g><mask></mask><g stroke-linecap="round"><g transform="translate(218 2688) rotate(0 101.5 7)"><path d="M0 0 C9 2.33, 26.67 12.5, 54 14 C81.33 15.5, 139.17 11.33, 164 9 C188.83 6.67, 196.5 1.5, 203 0 M0 0 C9 2.33, 26.67 12.5, 54 14 C81.33 15.5, 139.17 11.33, 164 9 C188.83 6.67, 196.5 1.5, 203 0" stroke="#1e1e1e" stroke-width="2" fill="none"></path></g></g><mask></mask><g transform="translate(108 2694) rotate(0 5.521598815917969 14)"><text x="0" y="0" font-family="Virgil, Segoe UI Emoji" font-size="22.4px" fill="#1e1e1e" text-anchor="start" style="white-space: pre;" direction="ltr" dominant-baseline="text-before-edge">p</text></g><g transform="translate(192 2694) rotate(0 7.321998596191406 17.5)"><text x="0" y="0" font-family="Virgil, Segoe UI Emoji" font-size="28px" fill="#1e1e1e" text-anchor="start" style="white-space: pre;" direction="ltr" dominant-baseline="text-before-edge">v</text></g><g transform="translate(314 2690) rotate(0 7.6439971923828125 17.5)"><text x="0" y="0" font-family="Virgil, Segoe UI Emoji" font-size="28px" fill="#1e1e1e" text-anchor="start" style="white-space: pre;" direction="ltr" dominant-baseline="text-before-edge">q</text></g><g stroke-linecap="round" transform="translate(17 3039) rotate(0 199.5 102.5)"><path d="M32 0 C103.49 4.18, 177.42 4.05, 367 0 M32 0 C147.7 3.11, 264.3 2.8, 367 0 M367 0 C391.48 -0.05, 401.97 14.21, 399 32 M367 0 C390.17 -0.65, 399.63 12.85, 399 32 M399 32 C400.63 59.98, 401.73 99.25, 399 173 M399 32 C395.03 84.92, 395.4 140.79, 399 173 M399 173 C396 192.69, 386.14 205.42, 367 205 M399 173 C402.2 194.24, 385.48 203.16, 367 205 M367 205 C252.09 207.55, 139.37 210.96, 32 205 M367 205 C298.78 201.04, 228.75 200.09, 32 205 M32 205 C12.35 202.11, -2.67 198.04, 0 173 M32 205 C8.03 205.16, -1.62 193.27, 0 173 M0 173 C-1.36 132.84, -1.09 89.47, 0 32 M0 173 C-2.19 117.52, -1.59 61.86, 0 32 M0 32 C3.4 7.89, 10.31 -0.66, 32 0 M0 32 C-0.3 7.86, 10.39 4.11, 32 0" stroke="#1e1e1e" stroke-width="2" fill="none"></path></g><g transform="translate(48 3087) rotate(0 69.78874969482422 17.229235088924497)"><text x="0" y="0" font-family="Virgil, Segoe UI Emoji" font-size="13.783388071139566px" fill="#1e1e1e" text-anchor="start" style="white-space: pre;" direction="ltr" dominant-baseline="text-before-edge">p: iré al cine</text><text x="0" y="17.229235088924458" font-family="Virgil, Segoe UI Emoji" font-size="13.783388071139566px" fill="#1e1e1e" text-anchor="start" style="white-space: pre;" direction="ltr" dominant-baseline="text-before-edge">q: iré a jugar fútbol</text></g><g transform="translate(46 3157) rotate(0 151.9359130859375 10)"><text x="0" y="0" font-family="Virgil, Segoe UI Emoji" font-size="16.000000000000135px" fill="#1e1e1e" text-anchor="start" style="white-space: pre;" direction="ltr" dominant-baseline="text-before-edge">iré al cine entonces iré a jugar futbol</text></g><g stroke-linecap="round"><g transform="translate(43 3097) rotate(0 -7 27)"><path d="M0 0 C-3 5.5, -18.67 24, -18 33 C-17.33 42, 0.33 50.5, 4 54 M0 0 C-3 5.5, -18.67 24, -18 33 C-17.33 42, 0.33 50.5, 4 54" stroke="#1e1e1e" stroke-width="2" fill="none"></path></g><g transform="translate(43 3097) rotate(0 -7 27)"><path d="M-10.69 50.05 C-6.31 51.23, -1.93 52.41, 4 54 M-10.69 50.05 C-5.49 51.45, -0.29 52.85, 4 54" stroke="#1e1e1e" stroke-width="2" fill="none"></path></g><g transform="translate(43 3097) rotate(0 -7 27)"><path d="M-4.71 41.54 C-2.12 45.25, 0.48 48.97, 4 54 M-4.71 41.54 C-1.63 45.95, 1.46 50.36, 4 54" stroke="#1e1e1e" stroke-width="2" fill="none"></path></g></g><mask></mask><g stroke-linecap="round"><g transform="translate(199 3110) rotate(0 49.5 19)"><path d="M0 0 C16.5 2, 86.83 5.67, 99 12 C111.17 18.33, 77.33 33.67, 73 38 M0 0 C16.5 2, 86.83 5.67, 99 12 C111.17 18.33, 77.33 33.67, 73 38" stroke="#1e1e1e" stroke-width="2" fill="none"></path></g><g transform="translate(199 3110) rotate(0 49.5 19)"><path d="M84.12 23.36 C81.85 26.34, 79.59 29.32, 73 38 M84.12 23.36 C79.77 29.09, 75.41 34.82, 73 38" stroke="#1e1e1e" stroke-width="2" fill="none"></path></g><g transform="translate(199 3110) rotate(0 49.5 19)"><path d="M90.93 33.93 C87.28 34.76, 83.63 35.59, 73 38 M90.93 33.93 C83.91 35.52, 76.89 37.12, 73 38" stroke="#1e1e1e" stroke-width="2" fill="none"></path></g></g><mask></mask><g stroke-linecap="round"><g transform="translate(40 3176) rotate(0 46.5 7.5)"><path d="M0 0 C6.33 3, 25.5 15.33, 38 18 C50.5 20.67, 65.83 19.5, 75 16 C84.17 12.5, 90 0.17, 93 -3 M0 0 C6.33 3, 25.5 15.33, 38 18 C50.5 20.67, 65.83 19.5, 75 16 C84.17 12.5, 90 0.17, 93 -3" stroke="#1e1e1e" stroke-width="2" fill="none"></path></g></g><mask></mask><g stroke-linecap="round"><g transform="translate(135 3178) rotate(0 35.5 1)"><path d="M0 0 C5.17 0.67, 19.17 4.33, 31 4 C42.83 3.67, 64.33 -1, 71 -2 M0 0 C5.17 0.67, 19.17 4.33, 31 4 C42.83 3.67, 64.33 -1, 71 -2" stroke="#1e1e1e" stroke-width="2" fill="none"></path></g></g><mask></mask><g stroke-linecap="round"><g transform="translate(357 3168) rotate(0 -75 9.5)"><path d="M0 0 C-10.5 3.17, -42 16.33, -63 19 C-84 21.67, -111.5 18.17, -126 16 C-140.5 13.83, -146 7.67, -150 6 M0 0 C-10.5 3.17, -42 16.33, -63 19 C-84 21.67, -111.5 18.17, -126 16 C-140.5 13.83, -146 7.67, -150 6" stroke="#1e1e1e" stroke-width="2" fill="none"></path></g></g><mask></mask><g transform="translate(81 3197) rotate(0 5.5 27.500000000000227)"><text x="0" y="0" font-family="Virgil, Segoe UI Emoji" font-size="22.000000000000128px" fill="#1e1e1e" text-anchor="start" style="white-space: pre;" direction="ltr" dominant-baseline="text-before-edge">p</text><text x="0" y="27.50000000000016" font-family="Virgil, Segoe UI Emoji" font-size="22.000000000000128px" fill="#1e1e1e" text-anchor="start" style="white-space: pre;" direction="ltr" dominant-baseline="text-before-edge"></text></g><g transform="translate(155 3181) rotate(0 12.543991088867188 17.5)"><text x="0" y="0" font-family="Virgil, Segoe UI Emoji" font-size="28px" fill="#1e1e1e" text-anchor="start" style="white-space: pre;" direction="ltr" dominant-baseline="text-before-edge">-&gt;</text></g><g transform="translate(274 3184) rotate(0 7.6439971923828125 17.5)"><text x="0" y="0" font-family="Virgil, Segoe UI Emoji" font-size="28px" fill="#1e1e1e" text-anchor="start" style="white-space: pre;" direction="ltr" dominant-baseline="text-before-edge">q</text></g><g stroke-linecap="round" transform="translate(41 3261) rotate(0 290.5 84)"><path d="M32 0 C184.26 2.93, 337.86 3.04, 549 0 M32 0 C145.73 -3.23, 259.67 -3.37, 549 0 M549 0 C568.45 -1.88, 583.63 11.18, 581 32 M549 0 C569.1 2.96, 578.39 8.79, 581 32 M581 32 C583.81 72.73, 584.91 106.31, 581 136 M581 32 C582.57 67.81, 581.44 107.3, 581 136 M581 136 C577.82 157.99, 567.87 165.04, 549 168 M581 136 C583.87 156.92, 570.08 164.38, 549 168 M549 168 C424.05 168.06, 297.13 166.61, 32 168 M549 168 C394.4 164.93, 238.72 164.32, 32 168 M32 168 C10.19 165.27, -0.22 155.56, 0 136 M32 168 C14.52 167.89, 4.13 160.89, 0 136 M0 136 C-5.82 108.4, 1.88 84.8, 0 32 M0 136 C2.53 97.87, 3.31 58.17, 0 32 M0 32 C2.85 10.07, 6.68 3.67, 32 0 M0 32 C0.95 13.48, 10.41 -1.02, 32 0" stroke="#1e1e1e" stroke-width="2" fill="none"></path></g><g transform="translate(83 3301) rotate(0 211.73516845703125 45.092594655036464)"><text x="0" y="0" font-family="Virgil, Segoe UI Emoji" font-size="18.03703786201458px" fill="#1e1e1e" text-anchor="start" style="white-space: pre;" direction="ltr" dominant-baseline="text-before-edge">p: está lloviendo</text><text x="0" y="22.546297327518225" font-family="Virgil, Segoe UI Emoji" font-size="18.03703786201458px" fill="#1e1e1e" text-anchor="start" style="white-space: pre;" direction="ltr" dominant-baseline="text-before-edge">q: hay nubes en el cielo</text><text x="0" y="45.09259465503645" font-family="Virgil, Segoe UI Emoji" font-size="18.03703786201458px" fill="#1e1e1e" text-anchor="start" style="white-space: pre;" direction="ltr" dominant-baseline="text-before-edge">Esta lloviendo si y solo si hay nubes en el cielo</text><text x="0" y="67.63889198255467" font-family="Virgil, Segoe UI Emoji" font-size="18.03703786201458px" fill="#1e1e1e" text-anchor="start" style="white-space: pre;" direction="ltr" dominant-baseline="text-before-edge"></text></g><g stroke-linecap="round"><g transform="translate(77 3308.9999442875796) rotate(0 -15 25.501331418875452)"><path d="M0 0 C-5 6.5, -29.83 30.5, -30 39 C-30.17 47.5, -5.83 49, -1 51 M0 0 C-5 6.5, -29.83 30.5, -30 39 C-30.17 47.5, -5.83 49, -1 51" stroke="#1e1e1e" stroke-width="2" fill="none"></path></g><g transform="translate(77 3308.9999442875796) rotate(0 -15 25.501331418875452)"><path d="M-16.56 53.05 C-12.65 52.54, -8.74 52.02, -1 51 M-16.56 53.05 C-13.43 52.64, -10.29 52.23, -1 51" stroke="#1e1e1e" stroke-width="2" fill="none"></path></g><g transform="translate(77 3308.9999442875796) rotate(0 -15 25.501331418875452)"><path d="M-14.24 42.57 C-10.91 44.69, -7.58 46.81, -1 51 M-14.24 42.57 C-11.57 44.27, -8.91 45.97, -1 51" stroke="#1e1e1e" stroke-width="2" fill="none"></path></g></g><mask></mask><g stroke-linecap="round"><g transform="translate(302 3331) rotate(0 130.5 9.02988376868575)"><path d="M0 0 C43.5 -1.33, 225.19 -12.34, 261 -8 C296.81 -3.66, 222.53 20.38, 214.83 26.06 M0 0 C43.5 -1.33, 225.19 -12.34, 261 -8 C296.81 -3.66, 222.53 20.38, 214.83 26.06" stroke="#1e1e1e" stroke-width="2" fill="none"></path></g><g transform="translate(302 3331) rotate(0 130.5 9.02988376868575)"><path d="M232.76 8.64 C228.63 12.65, 224.5 16.67, 214.83 26.06 M232.76 8.64 C226.45 14.77, 220.14 20.91, 214.83 26.06" stroke="#1e1e1e" stroke-width="2" fill="none"></path></g><g transform="translate(302 3331) rotate(0 130.5 9.02988376868575)"><path d="M239.77 24.24 C234.02 24.66, 228.27 25.08, 214.83 26.06 M239.77 24.24 C230.99 24.88, 222.21 25.52, 214.83 26.06" stroke="#1e1e1e" stroke-width="2" fill="none"></path></g></g><mask></mask><g stroke-linecap="round"><g transform="translate(79 3366) rotate(0 67 5.5)"><path d="M0 0 C11 2.17, 43.67 13.33, 66 13 C88.33 12.67, 122.67 0.5, 134 -2 M0 0 C11 2.17, 43.67 13.33, 66 13 C88.33 12.67, 122.67 0.5, 134 -2" stroke="#1e1e1e" stroke-width="2" fill="none"></path></g></g><mask></mask><g stroke-linecap="round"><g transform="translate(220 3366) rotate(0 49.5 3)"><path d="M0 0 C7.17 1.83, 26.5 11.83, 43 11 C59.5 10.17, 89.67 -2.33, 99 -5 M0 0 C7.17 1.83, 26.5 11.83, 43 11 C59.5 10.17, 89.67 -2.33, 99 -5" stroke="#1e1e1e" stroke-width="2" fill="none"></path></g></g><mask></mask><g stroke-linecap="round"><g transform="translate(320 3364) rotate(0 99 4)"><path d="M0 0 C19 1.5, 81 9.17, 114 9 C147 8.83, 184 0.67, 198 -1 M0 0 C19 1.5, 81 9.17, 114 9 C147 8.83, 184 0.67, 198 -1" stroke="#1e1e1e" stroke-width="2" fill="none"></path></g></g><mask></mask><g transform="translate(130 3372) rotate(0 6.9019927978515625 17.5)"><text x="0" y="0" font-family="Virgil, Segoe UI Emoji" font-size="28px" fill="#1e1e1e" text-anchor="start" style="white-space: pre;" direction="ltr" dominant-baseline="text-before-edge">p</text></g><g transform="translate(241 3372) rotate(0 21.01398468017578 17.5)"><text x="0" y="0" font-family="Virgil, Segoe UI Emoji" font-size="28px" fill="#1e1e1e" text-anchor="start" style="white-space: pre;" direction="ltr" dominant-baseline="text-before-edge">&lt;-&gt;</text></g><g transform="translate(428 3367) rotate(0 7.6439971923828125 17.5)"><text x="0" y="0" font-family="Virgil, Segoe UI Emoji" font-size="28px" fill="#1e1e1e" text-anchor="start" style="white-space: pre;" direction="ltr" dominant-baseline="text-before-edge">q</text></g></svg>