<svg version="1.1" xmlns="http://www.w3.org/2000/svg" viewBox="0 0 762 3868" width="762" height="3868">
  <!-- svg-source:excalidraw -->
  
  <defs>
    <style class="style-fonts">
      @font-face {
        font-family: "Virgil";
        src: url("https://excalidraw.com/Virgil.woff2");
      }
      @font-face {
        font-family: "Cascadia";
        src: url("https://excalidraw.com/Cascadia.woff2");
      }
      @font-face {
        font-family: "Assistant";
        src: url("https://excalidraw.com/Assistant-Regular.woff2");
      }
    </style>
    
  </defs>
  <rect x="0" y="0" width="762" height="3868" fill="#ffffff"></rect><g stroke-linecap="round" transform="translate(10 10) rotate(0 371 1924)"><path d="M32 0 C263.5 -3.28, 498.49 -4.96, 710 0 C733.68 -2.15, 745.8 6.04, 742 32 C716.2 1191.53, 715.85 2348.52, 742 3816 C738.43 3841.59, 733.27 3847.8, 710 3848 C450.22 3853.78, 191.68 3854.02, 32 3848 C5.36 3852.02, -4.51 3835.63, 0 3816 C33.54 2660.98, 32.88 1502.08, 0 32 C5.02 12.86, 8.9 3.23, 32 0" stroke="none" stroke-width="0" fill="#a5d8ff"></path><path d="M32 0 C269.4 -6.13, 505.49 -4.5, 710 0 M710 0 C731.02 -0.34, 740.29 10.52, 742 32 M742 32 C747.9 866.5, 746.32 1700.87, 742 3816 M742 3816 C743.45 3840.32, 733.56 3849.24, 710 3848 M710 3848 C552.74 3853.34, 396.16 3853.26, 32 3848 M32 3848 C12.64 3848.68, 1.28 3839.68, 0 3816 M0 3816 C-3.89 2311.14, -3.73 809.28, 0 32 M0 32 C2.84 9.07, 8.38 -3.94, 32 0" stroke="#1e1e1e" stroke-width="4.5" fill="none" stroke-dasharray="1.5 10"></path></g></svg>